/* XPM */
static char *_10687491c224a2ea32c06cb8b939d2ccRLinF3EeD31gpzD[] = {
/* columns rows colors chars-per-pixel */
"64 64 228 2 ",
"   c #040405",
".  c #060608",
"X  c #0B0B0B",
"o  c #17120F",
"O  c gray8",
"+  c #1B1B1B",
"@  c #1E1D21",
"#  c #1D2120",
"$  c #222223",
"%  c #2C2B25",
"&  c #2A2A2A",
"*  c #39312B",
"=  c #343334",
"-  c gray23",
";  c #433F37",
":  c #3E403A",
">  c #4E4331",
",  c #534E37",
"<  c #685529",
"1  c #766735",
"2  c #756B30",
"3  c #434444",
"4  c #4A4748",
"5  c gray29",
"6  c #5A5748",
"7  c #4F4F50",
"8  c #525352",
"9  c #585955",
"0  c gray36",
"q  c #635B47",
"w  c #625C58",
"e  c #726749",
"r  c #68695A",
"t  c #716E55",
"y  c #5E5E61",
"u  c gray39",
"i  c #676965",
"p  c #6C6C6C",
"a  c #756E65",
"s  c #797766",
"d  c #6F6E70",
"f  c #747474",
"g  c #767A74",
"h  c #7B7B7B",
"j  c #84774F",
"k  c #7F8079",
"l  c #BEAC1E",
"z  c #958B36",
"x  c #988B39",
"c  c #AF9828",
"v  c #A89439",
"b  c #BEA62F",
"n  c #AFA031",
"m  c #B5A837",
"M  c #CFB72F",
"N  c #C9B737",
"B  c #F8DA0D",
"V  c #F8DA1F",
"C  c #D2C23A",
"Z  c #F6DB22",
"A  c #F9DC24",
"S  c #F2DD2C",
"D  c #E1CD37",
"F  c #F3DE34",
"G  c #F6DC39",
"H  c #F9DD3A",
"J  c #F6E126",
"K  c #EDE03E",
"L  c #F7E43E",
"P  c #8C8257",
"I  c #9C9250",
"U  c #AA9840",
"Y  c #A59957",
"T  c #B9AB47",
"R  c #BDB24C",
"E  c #B7AB57",
"W  c #8C886E",
"Q  c #898678",
"!  c #9B9875",
"~  c #A79A77",
"^  c #9DA16B",
"/  c #B7B662",
"(  c #C2A946",
")  c #CAB84B",
"_  c #C6B857",
"`  c #CDBD70",
"'  c #CEC348",
"]  c #D8CA4D",
"[  c #CBC153",
"{  c #D9C756",
"}  c #D6C954",
"|  c #ECD947",
" . c #F9DE43",
".. c #EDDF51",
"X. c #F2DE53",
"o. c #F8DF56",
"O. c #EFE549",
"+. c #F6E14A",
"@. c #FAE44A",
"#. c #F5E556",
"$. c #F6E45B",
"%. c #F9E35B",
"&. c #CAC067",
"*. c #D7CB68",
"=. c #DCD267",
"-. c #D5CA7A",
";. c #E6D866",
":. c #F6DF6C",
">. c #F6E361",
",. c #FAE565",
"<. c #F3E66C",
"1. c #F8E669",
"2. c #F3ED6F",
"3. c #EEE376",
"4. c #F4E474",
"5. c #F1E67C",
"6. c #F5E97A",
"7. c #FAEC7A",
"8. c #848483",
"9. c #8C8987",
"0. c #8B8B8B",
"q. c #918F8F",
"w. c #9C9582",
"e. c #969788",
"r. c #8F8F90",
"t. c #938F90",
"y. c #959594",
"u. c #949398",
"i. c #9D9D9C",
"p. c #9FA195",
"a. c #B1AC8E",
"s. c #AAA894",
"d. c #BCBA98",
"f. c #9F9FA0",
"g. c #A4A4A4",
"h. c #A8A9A7",
"j. c #ACACAC",
"k. c #B6B5A3",
"l. c #B4B3AD",
"z. c #B5B4B4",
"x. c #B8B7B7",
"c. c #B8BAB7",
"v. c #BBBCBB",
"b. c #C1BCA6",
"n. c #C4BDB7",
"m. c #BDC1AD",
"M. c #BDC1BD",
"N. c #C8C798",
"B. c #EADF9A",
"V. c #ECE789",
"C. c #F3E782",
"Z. c #F3EA84",
"A. c #F9ED86",
"S. c #F2E68A",
"D. c #F5EB8C",
"F. c #ECE59B",
"G. c #F4EB93",
"H. c #F6E698",
"J. c #F4ED9C",
"K. c #FAEE9B",
"L. c #F6F194",
"P. c #F8F29B",
"I. c #C7C6A8",
"U. c #D3CBA9",
"Y. c #C7C6B9",
"T. c #D0C7BC",
"R. c #DAD6BA",
"E. c #EADCA0",
"W. c #E3DBB7",
"Q. c #EEE8AD",
"!. c #F7EDA6",
"~. c #F6F1A5",
"^. c #FAF3A3",
"/. c #F4F1AD",
"(. c #FAF3AB",
"). c #E8E7B9",
"_. c #F3F3B3",
"`. c #F9F4B5",
"'. c #FBF5BA",
"]. c #C1BFC1",
"[. c #BFC0C0",
"{. c #C4C3C3",
"}. c #CBCBC7",
"|. c #C9C7C8",
" X c gray80",
".X c #D2CFCD",
"XX c #D9D6C8",
"oX c #CFCFD0",
"OX c #CFD2D1",
"+X c #D4D5D4",
"@X c #D6D8D2",
"#X c #D9DBD4",
"$X c #DFD7D8",
"%X c #DBDBDA",
"&X c #E0DAD3",
"*X c #E8E5C6",
"=X c #F6F4C3",
"-X c #FAF5C4",
";X c #FBF9C5",
":X c #F7F5CB",
">X c #FBF6CC",
",X c #FBF9CB",
"<X c #E2E2DA",
"1X c #F1EFD9",
"2X c #FBF9D4",
"3X c #F8F7D9",
"4X c #FCFADB",
"5X c #DCDCE0",
"6X c gray89",
"7X c #E5E8E3",
"8X c #EBEAE4",
"9X c #ECECEB",
"0X c #F2EEE8",
"qX c #EFF5E3",
"wX c #FCF6E6",
"eX c #F7F9E7",
"rX c #FCFBE4",
"tX c #F4F3EE",
"yX c #FBF6EB",
"uX c #FBFBEC",
"iX c #EFEFF0",
"pX c #F4F4F4",
"aX c #F8F6F6",
"sX c #F6F9F4",
"dX c #FCFCF4",
"fX c #F7F7F8",
"gX c #F6FAF9",
"hX c white",
/* pixels */
"hXhXhXhXhXhXhXhXhXhXhXhXhXhXhXhXhXhXhXhXhXaXeX2X,X(.C.3.4.G.,XuXuXuXsXhXhXhXhXhXhXdXsXdXhXhXhXhXhXhXhXhXhXhXhXhXhXhXhXhXhXhXhXhX",
"hXhXhXhXhXhXhXhXhXhXhXhXhXhXhXhXhXhXhXhXgX#X_ C } _ j w 6 I C c v e u h u u 0.z.{.tXuXdXhXhXhXhXhXhXhXhXhXhXhXhXhXhXhXhXhXhXhXhX",
"hXhXhXhXhXhXhXhXhXhXhXhXhXhXhXhXhXhXhXsX{.> { !.uXhXOXM.c.tXXXR.I.l.tX+Xg.h.0.0.9.t / T.hXhXhXhXhXhXhXhXhXhXhXhXhXhXhXhXhXhXhXhX",
"hXhXhXhXhXhXhXhXhXhXhXhXhXhXhXhXhXhXdX&X< *.~.yX+X{.v.{.h. Xv.+X%X X9Xv.z.{.9X9X#Xk.V.T ~ 9XdXdXhXhXhXhXhXhXhXhXhXhXhXhXhXhXhXhX",
"hXhXhXhXhXhXhXhXhXhXhXhXhXhXhXhXhXhXsXE ;.>X%X XM.h.z.x.aX9X6X X9XhXhXhX+X X X+X%X}.yX'.;.Y rXdXdXhXhXhXhXhXhXhXhXhXhXhXhXhXhXhX",
"hXhXhXhXhXhXhXhXhXhXhXhXhXhXhXhXhXdXB.*.3XgX9X Xh. XhXaX9XhXhXaX[.hXhXhX%X+XhXhXdX+X5XhXyXR G.dXdXhXhXhXhXhXhXhXhXhXhXhXhXhXhXhX",
"hXhXhXhXhXhXhXhXhXhXhXhXhXhXhXhXhX1X[ *XgXdXdXsX7Xi.- & $ 4 u j.9XgXhXhXh.hX6X+X+X6X9XsXsXW [ 2XhXhXhXhXhXhXhXhXhXhXhXhXhXhXhXhX",
"hXhXhXhXhXhXhXhXhXhXhXhXhXhXhXhX X> _ 0XsXsXY.c.y.+     . 9. Xu u aXhX6X X8 O   X & %X6XhX#XP w.hXhXhXhXhXhXhXhXhXhXhXhXhXhXhXhX",
"hXhXhXhXhXhXhXhXhXhXhXhXhXhXhX X3 h *Xe.k 8.h.c.v.i.{.g j.y.0 - 0 sXhX0.# 3 f 0.]. XpX9XiXx.z.w z.hXhXhXhXhXhXhXhXhXhXhXhXhXhXhX",
"hXhXhXhXhXhXhXhXhXhXhXhXhXhXaX8 Y.9X0 y.{.i.p 3 8.y.0 f aXhXaX+XpXsXsXwX8 pXhXgX6XiX8.8 8 i.6X8.i.hXhXhXhXhXhXhXhXhXhXhXhXhXhXhX",
"hXhXhXhXhXhXhXhXhXhXhXhXhXhX9Xu hXl.8.sXz.3 {.pX{.x. XhXhXhXaX9X0XJ.G.5.s p 9XhXp - 0 z.pX X{.h g.hXhXhXhXhXhXhXhXhXhXhXhXhXhXhX",
"hXhXhXhXhXhXhXhXhXhXhXhXhXhX9Xu 9Xj.0.0 O y.g 8 g.aXhX9XpX X4 q _ V._.<.6.s.$ |.dXhXhX5 +X%X Xy.i.hXhXhXhXhXhXhXhXhXhXhXhXhXhXhX",
"hXhXhXhXhXhXhXhXhXhXhXhXhXhX9X= j.+X5 hXj.u aX6Xu # 0 h.9XhXa ` 1 9 n.~.X.s 8 g. X%X+X$ i {. X$ %XhXhXhXhXhXhXhXhXhXhXhXhXhXhXhX",
"hXhXhXhXhXhXhXhXhXhXhXhXhXhXhXh.u x.+XhX6X= = r.h i.<X! 9 3 9 w.7XfXsXp ; t.hXhXpX0.+ O 3 hXf.h dXhXhXhXhXhXhXhXhXhXhXhXhXhXhXhX",
"hXhXhXhXhXhXhXhXhXhXhXhXhXhXhXhXi.= %XsXgXoX3 y.= o Q *.C.e q.y.0 3 9 u 0 y u i $ y.3 h + hX7 aXhXdXhXhXhXhXhXhXhXhXhXhXhXhXhXhX",
"hXhXhXhXhXhXhXhXhXhXhXhXhXhXhXhXhXi.f :XrXrXu.h y.i 5 o < z k.aXhX+Xi 9X{.7 9XpX3 {.= - O pX$ hXhXdXhXhXhXhXhXhXhXhXhXhXhXhXhXhX",
"hXhXhXhXhXhXhXhXhXhXhXhXhXhXhXhXhXhX6 *.D.V.tXh + +XhX+Xh % O + $ & O @ $ O & + . X     = pX@ hXdXhXhXhXhXhXhXhXhXhXhXhXhXhXhXhX",
"hXhXhXhXhXhXhXhXhXhXhXhXhXhXhXhXhXhX|.2 4.2.!.sXg.8  XsXh.8.6Xl.g @ + .             . X i sX* hXgXhXhXhXhXhXhXhXhXhXhXhXhXhXhXhX",
"hXhXhXhXhXhXhXhXhXhXhXhXhXhXhXhXhXhXdXp.v 6.>.'.hX+X9 p - <XhXhXaXy 6X%Xg f oX= g.5 5 & j.eXE 4XhXhXhXhXhXhXhXhXhXhXhXhXhXhXhXhX",
"hXhXhXhXhXhXhXhXhXhXhXhXhXhXhXhXhXhXhXsXa.v | ;.R.j.6Xx.u 0 8. X{.- aXfX8 pXf.u p 5 5 p tXuX} ;XhXhXhXhXhXhXhXhXhXhXhXhXhXhXhXhX",
"hXhXhXhXhXhXhXhXhXhXhXhXhXhXhXhXhXhXdXsXaXn.' b ) l. X{.}.%Xx.h g f f 0 3 p i h h {.%XtXuXuX] :XhXhXhXhXhXhXhXhXhXhXhXhXhXhXhXhX",
"hXhXhXhXhXhXhXhXhXhXhXhXhXhXhXhXhXhXhXdXdXsX'.] M *.I.Y.z.j.z.6X9X9X[.{.v.{.{.9XhX9X{.9XpX-Xb b.hXhXhXhXhXhXhXhXhXhXhXhXhXhXhXhX",
"hXhXhXhXhXhXhXhXhXhXhXhXhXhXhXhXhXhXhXhXhXhXdXS.J.H.) T b.oX6X{.h.%XpXpXpX+Xx.z.6X6XaXOXI.#.C d.dXhXhXhXhXhXhXhXhXhXhXhXhXhXhXhX",
"hXhXhXhXhXhXhXhXhXhXhXhXhXhXhXhXhXhXhXhXhXhXdXrXrXdX4X_.w.- i.pXhXhX%X XaXaX Xz.j.h.{.<XZ.#.D Y.hXhXhXhXhXhXhXhXhXhXhXhXhXhXhXhX",
"hXhXhXhXhXhXhXhXhXhXhXhXhXhXhXhXhXhXhXhXhXD.D.dXhXgXhXsX X: 4 = 5 d h.9XgXhXhXhXhXhXsXJ.X.K ;.uXhXhXhXhXhXhXhXhXhXhXhXhXhXhXhXhX",
"hXhXhXhXhXhXhXhXhXhXhXhXhXhXhXhXhXhXhXD.hXD.hXhXhXdXrXU.4 m.Y @Xi.& g 9 3 f h.h.l.h.s.' l | 2XhXhXhXhXhXhXhXhXhXhXhXhXhXhXhXhXhX",
"hXhXhXhXhXhXhXhXhXhXhXhXhXhXhXhXhXhXhXD.D.hXhXhXdX-X;.v XXN.} uXsXN., XX:X<Xh.g.g.h.s.;.^.>XhXhXhXhXhXhXhXhXhXhXhXhXhXhXhXhXhXhX",
"hXhXhXhXhXhXhXhXhXhXhXhXhXhXhXhXhXhXhXD.hXhXhXdX`.{ 1 XXsXY V.uXhX~.N 1 ;.rXsXdXdXdXrX4.4XsXhXhXhXhXhXhXhXhXhXhXhXhXhXhXhXhXhXhX",
"hXhXhXhXhXhXhXhXhXhXhXhXhXhXhXhXhXhXhXD.hXhXhX4X{ < OXdX@Xe =XdXhXsX~.T c D.rXhXdXdXhXhXhXhXhXhXhXhXhXhXhXhXhXhXhXhXhXhXhXhXhXhX",
"hXhXhXhXhXhXhXhXhXhXhXhXhXhXhXhXhXhXhXD.hXdXhXQ.n .XhXhXW a.sXhXdXdXuXJ.M M L.dXhXhXhXhXhXD.hXhXhXhXhXhXhXhXhXhXhXhXhXhXhXhXhXhX",
"hXhXhXhXhXhXhXhXhXhXhXhXhXhXhXhXhXhXD.hXhXgX%XU | 4XdXgXx F.dXdXdXdXdXsXJ.E N !.uXhXhXhXhXD.hXhXhXhXhXhXhXhXhXhXhXhXhXhXhXhXhXhX",
"hXhXhXhXhXhXhXhXhXhXhXhXhXhXhXhXhXhXD.hXhXsXr ( D.dXdX8Xm '.hXdXhXhXhXgXdXsX! E yXdXhXhXhXD.hXhXhXhXhXhXhXhXhXhXhXhXhXhXhXhXhXhX",
"hXhXhXhXhXhXhXhXhXhXhXhXhXhXhXhXhXhXD.hXhX|.2 3.rXhXhXT.) 4XhXdXhXD.hXdXhXdX8X8 <XdXhXhXhXhXhXhXhXhXhXhXhXhXhXhXhXhXhXhXhXhXhXhX",
"hXhXhXhXhXhXhXhXhXhXhXhXhXhXhXhXhXhXhXhXhXa R `.hXdXhXa.} uXhXhXdXhXD.hXhXdXdX^ q.hXhXhXhXhXhXhXhXhXhXhXhXhXhXhXhXhXhXhXhXhXhXhX",
"hXhXhXhXhXhXhXhXhXhXhXhXhXhXhXhXhXhXhXhX6X1 C.uXdXdXhX! ;.uXhXhXdXhXD.hXhXdXeX;.s.hXhXhXhXhXhXhXhXhXhXhXhXhXhXhXhXhXhXhXhXhXhXhX",
"hXhXhXhXhXhXhXhXhXhXhXhXhXhXhXhXhXhXdXhXgX*X:XhXhXhXdXq W.dXhXhXhXhXD.hXhXdXuX1.4XhXhXhXhXhXhXhXhXhXhXhXhXhXhXhXhXhXhXhXhXhXhXhX",
"hXhXhXhXhXhXhXhXhXhXhXhXhXhXhXhXhXhXhXdXdXhXdXdXhXhXdX6 Q.dXhXhXhXhXhXhXhXhXhX4.,XhXhXhXD.hXhXhXhXhXhXhXhXhXhXhXhXhXhXhXhXhXhXhX",
"hXhXhXhXhXhXhXhXhXhXhXhXhXhXhXhXhXhXhXhXhXhXhXhXhXhXdXj G.dXhXhXhXhXhXhXhXhXhXhXhXhXhXhXD.hXhXhXhXhXhXhXhXhXhXhXhXhXhXhXhXhXhXhX",
"hXhXhXhXhXhXhXhXhXhXhXhXhXhXhXhXhXhXhXhXD.hXhXhXdXdXdXx H.dXhXhXhXhXhXhXhXhXhXhXhXhXhXhXD.hXhXhXhXhXhXhXhXhXhXhXhXhXhXhXhXhXhXhX",
"hXhXhXhXhXhXhXhXhXhXhXhXhXhXhXhXhXhXhXhXD.hXhXhXhXhXhXm G.dXhXhXhXhXhXhXhXhXhXhXhXhXhXhXhXD.hXhXhXhXhXhXhXhXhXhXhXhXhXhXhXhXhXhX",
"hXhXhXhXhXhXhXhXhXhXhXhXhXhXhXhXhXhXhXhXD.hXhXhXhXhXdX) Q.hXhXhXhXhXhXhXhXhXhXhXhXhXhXhXhXhXhXhXhXhXhXhXhXhXhXhXhXhXhXhXhXhXhXhX",
"hXhXhXhXhXhXhXhXhXhXhXhXhXhXhXhXD.hXhXhXD.hXhXhXhXhXdX=.d.dXhXhXhXhXhXhXhXhXD.hXhXhXhXhXhXhXhXhXhXhXhXhXhXhXhXhXhXhXhXhXhXhXhXhX",
"hXhXhXhXhXhXhXhXhXhXhXhXhXhXhXhXD.hXhXhXD.hXhXhXhXhXuX=.Q hXhXhXhXhXhXhXhXhXD.hXhXhXhXhXhXhXhXhXhXhXhXhXhXhXhXhXhXhXhXhXhXhXhXhX",
"hXhXhXhXhXhXhXhXhXhXhXhXhXhXhXhXD.hXhXhXhXhXhXhXhXhXdXU.g hXhXhXhXhXhXhXhXhXD.hXhXhXhXhXhXhXhXhXhXhXhXhXhXhXhXhXhXhXhXhXhXhXhXhX",
"hXhXhXhXhXhXhXhXhXhXhXhXhXhXhXhXD.hXhXhXhXhXhXhXhXhXdX}.g hXhXhXhXhXhXhXhXhXD.hXhXhXhXhXhXhXhXhXhXhXhXhXhXhXhXhXhXhXhXhXhXhXhXhX",
"hXhXhXhXhXhXhXhXhXhXhXhXhXhXhXhXD.hXhXhXhXhXhXhXhXhXhX X5 sXhXhXhXhXhXhXhXhXD.hXhXhXhXhXhXhXhXhXhXhXhXhXhXhXhXhXhXhXhXhXhXhXhXhX",
"hXhXhXhXhXhXhXhXhXhXhXhXhXhXhXD.hXhXhXhXhXhXhXhXhXhX{.7 4 i +XgXhXhXhXhXhXhXhXhXhXhXhXhXhXhXhXhXD.hXhXhXhXhXhXhXhXhXhXhXhXhXhXhX",
"hXhXhXhXhXhXhXhXhXhXhXhXhXhXhXD.hXhXhXhXhXhXhXhXsXz.8 +XaXx.8 x.hXhXhXhXhXhXhXhXhXhXhXhXhXhXhXhXD.hXhXhXhXhXhXhXhXhXhXhXhXhXhXhX",
"hXhXhXhXhXhXhXhXhXhXhXhXhXhXhXD.hXhXhXhXhXhXhXhX|., <XhXhXhX+X8 j.uXdXhXhXhXhXhXhXhXhXhXD.hXhXhXD.hXhXhXhXhXhXhXhXhXhXhXhXhXhXhX",
"hXhXhXhXhXhXhXhXhXhXhXhXhXhXhXD.hXhXhXhXhXdXdXsXP =.4XhXhXhXhX#X6 -.rXdXdXhXhXhXhXhXhXhXhXD.hXhXD.hXhXhXhXhXhXhXhXhXhXhXhXhXhXhX",
"hXhXhXhXhXhXhXhXhXhXhXhXhXhXhXD.hXhXhXhXhXdXhXR.N '.dXhXhXdXdXdX$Xz S.dXhXdXhXhXhXhXhXhXhXD.hXhXhXhXhXhXhXhXhXhXhXhXhXhXhXhXhXhX",
"hXhXhXhXhXhXhXhXhXhXhXhXhXhXhXD.hXhXhXhXhXdX3X[ F.uXhXhXhXdXhXdXhXW.) <XhXhXhXhXhXhXhXhXhXD.hXhXhXhXhXhXhXhXhXhXhXhXhXhXhXhXhXhX",
"hXhXhXhXhXhXhXhXhXhXhXhXhXhXhXD.hXhXhXhXhXuX=.-.uXdXhXhXhXhXhXhXhXdXY.6 qXsXdXhXhXhXhXhXhXD.hXhXhXhXhXhXhXhXhXhXhXhXhXhXhXhXhXhX",
"hXhXhXhXhXhXhXhXhXhXhXhXhXhXD.hXhXhXhXhXhX*X( 1XdXdXdXhXhXhXhXhXdXhXsX` ~ gXdXhXhXhXhXhXhXhXhXhXhXhXhXhXhXhXhXhXhXhXhXhXhXhXhXhX",
"hXhXhXhXhXhXhXhXhXhXhXhXhXhXD.hXhXhXhXhXhXs.w.hXdXdXhXhXhXhXhXhXhXuX4XA.z +XdXdXhXdXhXhXhXhXhXhXhXhXhXhXhXhXhXhXhXhXhXhXhXhXhXhX",
"hXhXhXhXhXhXhXhXhXhXhXhXhXhXhXhXdXhXhXsX9X8 @XuXdXdXdXdXdXuXwX,XK.<.4.4.&.r -XZ.(.rXdXdXdXhXhXhXhXhXhXhXhXhXhXhXhXhXhXhXhXhXhXhX",
"hXhXhXhXhXhXhXhXhXhXhXhXhXhXhXhXhXdXdXdXl.s _.G.Z.Z.C.Z.4.+.H #.6.^.(.`.S.> #X`.C.<./.dXdXhXhXhXhXhXhXhXhXhXhXhXhXhXhXhXhXhXhXhX",
"hXhXhXhXhXhXhXhXhXhXhXhXhXhXhXhXdX'.Z.3Xi d.4.!.(.7.(.`.1.L J P.K.S V ,.2Xt n.`.C.`.3.4XdXhXhXhXhXhXhXhXhXhXhXhXhXhXhXhXhXhXhXhX",
"hXhXhXhXhXhXhXhXhXhXhXhXhXdXhXdX'.H +.).9 /.X.^.,.S (.K.>.%.A @.Z A V ,.'.F.'.| O.>X<.4XhXhXhXhXhXhXhXhXhXhXhXhXhXhXhXhXhXhXhXhX",
"hXhXhXhXhXhXhXhXhXhXhXhXhXdXdX2X#.A %.Y.a 1.J S B A #.1.%.J Z %.>.P.L L G %.<.A.;XL.S.dXdXhXhXhXhXhXhXhXhXhXhXhXhXhXhXhXhXhXhXhX",
"hXhXhXhXhXhXhXhXhXhXhXhXhXhXdX!.A.+.K.E.-.H A.6.A B  .A.S J 1.2X2X>X..Z. .F D.2XD.3.4XhXdXhXhXhXhXhXhXhXhXhXhXhXhXhXhXhXhXhXhXhX",
"hXhXhXhXhXhXhXhXhXhXhXhXhXdXdXL.7.F H Z  .Z.uX2XL H '.^.@.F >.3.5.6.Z.(.+.2.P.4.J.rXhXdXdXhXhXhXhXhXhXhXhXhXhXhXhXhXhXhXhXhXhXhX",
"hXhXhXhXhXhXhXhXhXhXhXhXhXdXhX>X#.@.L.J.-XrX2X;X1.,.4.4.K.'.>X,X,X'.K.5.6.4.H.>XdXdXhXdXdXdXhXhXhXhXhXhXhXhXhXhXhXhXhXhXhXhXhXhX",
"hXhXhXhXhXhXhXhXhXhXhXhXhXhXhXhX>X1.o.%.%.#.$.:.6.J.,XuXdXhXhXhXhXhXhXdXdXdXdXhXhXhXhXhXhXhXhXhXhXhXhXhXhXhXhXhXhXhXhXhXhXhXhXhX"
};
