/* XPM */
static char *_81216c0b6d24e45f6343e2c165a5c75i37IiOjU5pkhD0Su[] = {
/* columns rows colors chars-per-pixel */
"64 64 227 2 ",
"   c #040405",
".  c #060608",
"X  c #0B0B0B",
"o  c #17120F",
"O  c gray8",
"+  c #1B1B1B",
"@  c #1E1D21",
"#  c #1D2120",
"$  c #222223",
"%  c #2C2B25",
"&  c #2A2A2A",
"*  c #39312B",
"=  c #343334",
"-  c gray23",
";  c #433F37",
":  c #3E403A",
">  c #4E4331",
",  c #534E37",
"<  c #685529",
"1  c #766735",
"2  c #756B30",
"3  c #434444",
"4  c #4A4748",
"5  c gray29",
"6  c #5A5748",
"7  c #4F4F50",
"8  c #525352",
"9  c #585955",
"0  c gray36",
"q  c #635B47",
"w  c #625C58",
"e  c #726749",
"r  c #68695A",
"t  c #716E55",
"y  c #5E5E61",
"u  c gray39",
"i  c #676965",
"p  c #6C6C6C",
"a  c #756E65",
"s  c #797766",
"d  c #6F6E70",
"f  c #747474",
"g  c #767A74",
"h  c #7B7B7B",
"j  c #84774F",
"k  c #7F8079",
"l  c #BEAC1E",
"z  c #958B36",
"x  c #988B39",
"c  c #AF9828",
"v  c #A89439",
"b  c #BEA62F",
"n  c #AFA031",
"m  c #B5A837",
"M  c #CFB72F",
"N  c #C9B737",
"B  c #F8DA0D",
"V  c #F8DA1F",
"C  c #D2C23A",
"Z  c #F6DB22",
"A  c #F9DC24",
"S  c #F2DD2C",
"D  c #E1CD37",
"F  c #F3DE34",
"G  c #F6DC39",
"H  c #F9DD3A",
"J  c #F6E126",
"K  c #EDE03E",
"L  c #F7E43E",
"P  c #8C8257",
"I  c #9C9250",
"U  c #AA9840",
"Y  c #A59957",
"T  c #B9AB47",
"R  c #BDB24C",
"E  c #B7AB57",
"W  c #8C886E",
"Q  c #898678",
"!  c #9B9875",
"~  c #A79A77",
"^  c #9DA16B",
"/  c #B7B662",
"(  c #C2A946",
")  c #CAB84B",
"_  c #C6B857",
"`  c #CDBD70",
"'  c #CEC348",
"]  c #D8CA4D",
"[  c #CBC153",
"{  c #D9C756",
"}  c #D6C954",
"|  c #ECD947",
" . c #F9DE43",
".. c #EDDF51",
"X. c #F2DE53",
"o. c #EFE549",
"O. c #F6E14A",
"+. c #FAE44A",
"@. c #F5E556",
"#. c #F6E45B",
"$. c #F9E35B",
"%. c #CAC067",
"&. c #D7CB68",
"*. c #DCD267",
"=. c #D5CA7A",
"-. c #E6D866",
";. c #F6DF6C",
":. c #F6E361",
">. c #FAE565",
",. c #F3E66C",
"<. c #F8E669",
"1. c #F3ED6F",
"2. c #EEE376",
"3. c #F4E474",
"4. c #F1E67C",
"5. c #F5E97A",
"6. c #FAEC7A",
"7. c #848483",
"8. c #8C8987",
"9. c #8B8B8B",
"0. c #918F8F",
"q. c #9C9582",
"w. c #969788",
"e. c #8F8F90",
"r. c #938F90",
"t. c #959594",
"y. c #949398",
"u. c #9D9D9C",
"i. c #9FA195",
"p. c #B1AC8E",
"a. c #AAA894",
"s. c #BCBA98",
"d. c #9F9FA0",
"f. c #A4A4A4",
"g. c #A8A9A7",
"h. c #ACACAC",
"j. c #B6B5A3",
"k. c #B4B3AD",
"l. c #B5B4B4",
"z. c #B8B7B7",
"x. c #B8BAB7",
"c. c #BBBCBB",
"v. c #C1BCA6",
"b. c #C4BDB7",
"n. c #BDC1AD",
"m. c #BDC1BD",
"M. c #C8C798",
"N. c #EADF9A",
"B. c #ECE789",
"V. c #F3E782",
"C. c #F3EA84",
"Z. c #F9ED86",
"A. c #F2E68A",
"S. c #F5EB8C",
"D. c #ECE59B",
"F. c #F4EB93",
"G. c #F6E698",
"H. c #F4ED9C",
"J. c #FAEE9B",
"K. c #F6F194",
"L. c #F8F29B",
"P. c #C7C6A8",
"I. c #D3CBA9",
"U. c #C7C6B9",
"Y. c #D0C7BC",
"T. c #DAD6BA",
"R. c #EADCA0",
"E. c #E3DBB7",
"W. c #EEE8AD",
"Q. c #F7EDA6",
"!. c #F6F1A5",
"~. c #FAF3A3",
"^. c #F4F1AD",
"/. c #FAF3AB",
"(. c #E8E7B9",
"). c #F3F3B3",
"_. c #F9F4B5",
"`. c #FBF5BA",
"'. c #C1BFC1",
"]. c #BFC0C0",
"[. c #C4C3C3",
"{. c #CBCBC7",
"}. c #C9C7C8",
"|. c gray80",
" X c #D2CFCD",
".X c #D9D6C8",
"XX c #CFCFD0",
"oX c #CFD2D1",
"OX c #D4D5D4",
"+X c #D6D8D2",
"@X c #D9DBD4",
"#X c #DFD7D8",
"$X c #DBDBDA",
"%X c #E0DAD3",
"&X c #E8E5C6",
"*X c #F6F4C3",
"=X c #FAF5C4",
"-X c #FBF9C5",
";X c #F7F5CB",
":X c #FBF6CC",
">X c #FBF9CB",
",X c #E2E2DA",
"<X c #F1EFD9",
"1X c #FBF9D4",
"2X c #F8F7D9",
"3X c #FCFADB",
"4X c #DCDCE0",
"5X c gray89",
"6X c #E5E8E3",
"7X c #EBEAE4",
"8X c #ECECEB",
"9X c #F2EEE8",
"0X c #EFF5E3",
"qX c #FCF6E6",
"wX c #F7F9E7",
"eX c #FCFBE4",
"rX c #F4F3EE",
"tX c #FBF6EB",
"yX c #FBFBEC",
"uX c #EFEFF0",
"iX c #F4F4F4",
"pX c #F8F6F6",
"aX c #F6F9F4",
"sX c #FCFCF4",
"dX c #F7F7F8",
"fX c #F6FAF9",
"gX c white",
/* pixels */
"gXgXgXgXgXgXgXgXgXgXgXgXgXgXgXgXgXgXgXgXgXpXwX1X>X/.V.2.3.F.>XyXyXyXaXgXgXgXgXgXgXsXaXsXgXgXgXgXgXgXgXgXgXgXgXgXgXgXgXgXgXgXgXgX",
"gXgXgXgXgXgXgXgXgXgXgXgXgXgXgXgXgXgXgXgXfX@X_ C } _ j w 6 I C c v e u h u u 9.l.[.rXyXsXgXgXgXgXgXgXgXgXgXgXgXgXgXgXgXgXgXgXgXgX",
"gXgXgXgXgXgXgXgXgXgXgXgXgXgXgXgXgXgXgXaX[.> { Q.yXgXoXm.x.rX.XT.P.k.rXOXf.g.9.9.8.t / Y.gXgXgXgXgXgXgXgXgXgXgXgXgXgXgXgXgXgXgXgX",
"gXgXgXgXgXgXgXgXgXgXgXgXgXgXgXgXgXgXsX%X< &.!.tXOX[.c.[.g.|.c.OX$X|.8Xc.l.[.8X8X@Xj.B.T ~ 8XsXsXgXgXgXgXgXgXgXgXgXgXgXgXgXgXgXgX",
"gXgXgXgXgXgXgXgXgXgXgXgXgXgXgXgXgXgXaXE -.:X$X|.m.g.l.z.pX8X5X|.8XgXgXgXOX|.|.OX$X{.tX`.-.Y eXsXsXgXgXgXgXgXgXgXgXgXgXgXgXgXgXgX",
"gXgXgXgXgXgXgXgXgXgXgXgXgXgXgXgXgXsXN.&.2XfX8X|.g.|.gXpX8XgXgXpX].gXgXgX$XOXgXgXsXOX4XgXtXR F.sXsXgXgXgXgXgXgXgXgXgXgXgXgXgXgXgX",
"gXgXgXgXgXgXgXgXgXgXgXgXgXgXgXgXgX<X[ &XfXsXsXaX6Xu.- & $ 4 u h.8XfXgXgXg.gX5XOXOX5X8XaXaXW [ 1XgXgXgXgXgXgXgXgXgXgXgXgXgXgXgXgX",
"gXgXgXgXgXgXgXgXgXgXgXgXgXgXgXgX|.> _ 9XaXaXU.x.t.+     . 8.|.u u pXgX5X|.8 O   X & $X5XgX@XP q.gXgXgXgXgXgXgXgXgXgXgXgXgXgXgXgX",
"gXgXgXgXgXgXgXgXgXgXgXgXgXgXgX|.3 h &Xw.k 7.g.x.c.u.[.g h.t.0 - 0 aXgX9.# 3 f 9.'.|.iX8XuXz.l.w l.gXgXgXgXgXgXgXgXgXgXgXgXgXgXgX",
"gXgXgXgXgXgXgXgXgXgXgXgXgXgXpX8 U.8X0 t.[.u.p 3 7.t.0 f pXgXpXOXiXaXaXqX8 iXgXfX5XuX7.8 8 u.5X7.u.gXgXgXgXgXgXgXgXgXgXgXgXgXgXgX",
"gXgXgXgXgXgXgXgXgXgXgXgXgXgX8Xu gXk.7.aXl.3 [.iX[.z.|.gXgXgXpX8X9XH.F.4.s p 8XgXp - 0 l.iX|.[.h f.gXgXgXgXgXgXgXgXgXgXgXgXgXgXgX",
"gXgXgXgXgXgXgXgXgXgXgXgXgXgX8Xu 8Xh.9.0 O t.g 8 f.pXgX8XiX|.4 q _ B.).,.5.a.$ }.sXgXgX5 OX$X|.t.u.gXgXgXgXgXgXgXgXgXgXgXgXgXgXgX",
"gXgXgXgXgXgXgXgXgXgXgXgXgXgX8X= h.OX5 gXh.u pX5Xu # 0 g.8XgXa ` 1 9 b.!.X.s 8 f.|.$XOX$ i [.|.$ $XgXgXgXgXgXgXgXgXgXgXgXgXgXgXgX",
"gXgXgXgXgXgXgXgXgXgXgXgXgXgXgXg.u z.OXgX5X= = e.h u.,X! 9 3 9 q.6XdXaXp ; r.gXgXiX9.+ O 3 gXd.h sXgXgXgXgXgXgXgXgXgXgXgXgXgXgXgX",
"gXgXgXgXgXgXgXgXgXgXgXgXgXgXgXgXu.= $XaXfXXX3 t.= o Q &.V.e 0.t.0 3 9 u 0 y u i $ t.3 h + gX7 pXgXsXgXgXgXgXgXgXgXgXgXgXgXgXgXgX",
"gXgXgXgXgXgXgXgXgXgXgXgXgXgXgXgXgXu.f ;XeXeXy.h t.i 5 o < z j.pXgXOXi 8X[.7 8XiX3 [.= - O iX$ gXgXsXgXgXgXgXgXgXgXgXgXgXgXgXgXgX",
"gXgXgXgXgXgXgXgXgXgXgXgXgXgXgXgXgXgX6 &.S.B.rXh + OXgXOXh % O + $ & O @ $ O & + . X     = iX@ gXsXgXgXgXgXgXgXgXgXgXgXgXgXgXgXgX",
"gXgXgXgXgXgXgXgXgXgXgXgXgXgXgXgXgXgX}.2 3.1.Q.aXf.8 |.aXg.7.5Xk.g @ + .             . X i aX* gXfXgXgXgXgXgXgXgXgXgXgXgXgXgXgXgX",
"gXgXgXgXgXgXgXgXgXgXgXgXgXgXgXgXgXgXsXi.v 5.:.`.gXOX9 p - ,XgXgXpXy 5X$Xg f XX= f.5 5 & h.wXE 3XgXgXgXgXgXgXgXgXgXgXgXgXgXgXgXgX",
"gXgXgXgXgXgXgXgXgXgXgXgXgXgXgXgXgXgXgXaXp.v | -.T.h.5Xz.u 0 7.|.[.- pXdX8 iXd.u p 5 5 p rXyX} -XgXgXgXgXgXgXgXgXgXgXgXgXgXgXgXgX",
"gXgXgXgXgXgXgXgXgXgXgXgXgXgXgXgXgXgXsXaXpXb.' b ) k.|.[.{.$Xz.h g f f 0 3 p i h h [.$XrXyXyX] ;XgXgXgXgXgXgXgXgXgXgXgXgXgXgXgXgX",
"gXgXgXgXgXgXgXgXgXgXgXgXgXgXgXgXgXgXgXsXsXaX`.] M &.P.U.l.h.l.5X8X8X].[.c.[.[.8XgX8X[.8XiX=Xb v.gXgXgXgXgXgXgXgXgXgXgXgXgXgXgXgX",
"gXgXgXgXgXgXgXgXgXgXgXgXgXgXgXgXgXgXgXgXgXgXsXA.H.G.) T v.XX5X[.g.$XiXiXiXOXz.l.5X5XpXoXP.@.C s.sXgXgXgXgXgXgXgXgXgXgXgXgXgXgXgX",
"gXgXgXgXgXgXgXgXgXgXgXgXgXgXgXgXgXgXgXgXgXgXsXeXeXsX3X).q.- u.iXgXgX$X|.pXpX|.l.h.g.[.,XC.@.D U.gXgXgXgXgXgXgXgXgXgXgXgXgXgXgXgX",
"gXgXgXgXgXgXgXgXgXgXgXgXgXgXgXgXgXgXgXgXgXsXsXsXgXfXgXaX|.: 4 = 5 d g.8XfXgXgXgXgXgXaXH.X.K -.yXgXgXgXgXgXgXgXgXgXgXgXgXgXgXgXgX",
"gXgXgXgXgXgXgXgXgXgXgXgXgXgXgXgXgXgXgXgXgXgXgXgXgXsXeXI.4 n.Y +Xu.& g 9 3 f g.g.k.g.a.' l | 1XgXgXgXgXgXgXgXgXgXgXgXgXgXgXgXgXgX",
"gXgXgXgXgXgXgXgXgXgXgXgXgXgXgXgXgXgXgXgXgXgXgXgXsX=X-.v .XM.} yXaXM., .X;X,Xg.f.f.g.a.-.~.:XgXgXgXgXgXgXgXgXgXgXgXgXgXgXgXgXgXgX",
"gXgXgXgXgXgXgXgXgXgXgXgXgXgXgXgXgXgXgXgXgXgXgXsX_.{ 1 .XaXY B.yXgX!.N 1 -.eXaXsXsXsXeX3.3XaXgXgXgXgXgXgXgXgXgXgXgXgXgXgXgXgXgXgX",
"gXgXgXgXgXgXgXgXgXgXgXgXgXgXgXgXgXgXgXgXgXgXgX3X{ < oXsX+Xe *XsXgXaX!.T c S.eXgXsXsXgXgXgXgXgXgXgXgXgXgXgXgXgXgXgXgXgXgXgXgXgXgX",
"gXgXgXgXgXgXgXgXgXgXgXgXgXgXgXgXgXgXgXgXgXsXgXW.n  XgXgXW p.aXgXsXsXyXH.M M K.sXgXgXgXgXgXgXgXgXgXgXgXgXgXgXgXgXgXgXgXgXgXgXgXgX",
"gXgXgXgXgXgXgXgXgXgXgXgXgXgXgXgXgXgXgXgXgXfX$XU | 3XsXfXx D.sXsXsXsXsXaXH.E N Q.yXgXgXgXgXgXgXgXgXgXgXgXgXgXgXgXgXgXgXgXgXgXgXgX",
"gXgXgXgXgXgXgXgXgXgXgXgXgXgXgXgXgXgXgXgXgXaXr ( S.sXsX7Xm `.gXsXgXgXgXfXsXaX! E tXsXgXgXgXgXgXgXgXgXgXgXgXgXgXgXgXgXgXgXgXgXgXgX",
"gXgXgXgXgXgXgXgXgXgXgXgXgXgXgXgXgXgXgXgXgX}.2 2.eXgXgXY.) 3XgXsXgXgXgXsXgXsX7X8 ,XsXgXgXgXgXgXgXgXgXgXgXgXgXgXgXgXgXgXgXgXgXgXgX",
"gXgXgXgXgXgXgXgXgXgXgXgXgXgXgXgXgXgXgXgXgXa R _.gXsXgXp.} yXgXgXsXgXgXgXgXsXsX^ 0.gXgXgXgXgXgXgXgXgXgXgXgXgXgXgXgXgXgXgXgXgXgXgX",
"gXgXgXgXgXgXgXgXgXgXgXgXgXgXgXgXgXgXgXgX5X1 V.yXsXsXgX! -.yXgXgXsXgXgXgXgXsXwX-.a.gXgXgXgXgXgXgXgXgXgXgXgXgXgXgXgXgXgXgXgXgXgXgX",
"gXgXgXgXgXgXgXgXgXgXgXgXgXgXgXgXgXgXsXgXfX&X;XgXgXgXsXq E.sXgXgXgXgXgXgXgXsXyX<.3XgXgXgXgXgXgXgXgXgXgXgXgXgXgXgXgXgXgXgXgXgXgXgX",
"gXgXgXgXgXgXgXgXgXgXgXgXgXgXgXgXgXgXgXsXsXgXsXsXgXgXsX6 W.sXgXgXgXgXgXgXgXgXgX3.>XgXgXgXgXgXgXgXgXgXgXgXgXgXgXgXgXgXgXgXgXgXgXgX",
"gXgXgXgXgXgXgXgXgXgXgXgXgXgXgXgXgXgXgXgXgXgXgXgXgXgXsXj F.sXgXgXgXgXgXgXgXgXgXgXgXgXgXgXgXgXgXgXgXgXgXgXgXgXgXgXgXgXgXgXgXgXgXgX",
"gXgXgXgXgXgXgXgXgXgXgXgXgXgXgXgXgXgXgXgXgXgXgXgXsXsXsXx G.sXgXgXgXgXgXgXgXgXgXgXgXgXgXgXgXgXgXgXgXgXgXgXgXgXgXgXgXgXgXgXgXgXgXgX",
"gXgXgXgXgXgXgXgXgXgXgXgXgXgXgXgXgXgXgXgXgXgXgXgXgXgXgXm F.sXgXgXgXgXgXgXgXgXgXgXgXgXgXgXgXgXgXgXgXgXgXgXgXgXgXgXgXgXgXgXgXgXgXgX",
"gXgXgXgXgXgXgXgXgXgXgXgXgXgXgXgXgXgXgXgXgXgXgXgXgXgXsX) W.gXgXgXgXgXgXgXgXgXgXgXgXgXgXgXgXgXgXgXgXgXgXgXgXgXgXgXgXgXgXgXgXgXgXgX",
"gXgXgXgXgXgXgXgXgXgXgXgXgXgXgXgXgXgXgXgXgXgXgXgXgXgXsX*.s.sXgXgXgXgXgXgXgXgXgXgXgXgXgXgXgXgXgXgXgXgXgXgXgXgXgXgXgXgXgXgXgXgXgXgX",
"gXgXgXgXgXgXgXgXgXgXgXgXgXgXgXgXgXgXgXgXgXgXgXgXgXgXyX*.Q gXgXgXgXgXgXgXgXgXgXgXgXgXgXgXgXgXgXgXgXgXgXgXgXgXgXgXgXgXgXgXgXgXgXgX",
"gXgXgXgXgXgXgXgXgXgXgXgXgXgXgXgXgXgXgXgXgXgXgXgXgXgXsXI.g gXgXgXgXgXgXgXgXgXgXgXgXgXgXgXgXgXgXgXgXgXgXgXgXgXgXgXgXgXgXgXgXgXgXgX",
"gXgXgXgXgXgXgXgXgXgXgXgXgXgXgXgXgXgXgXgXgXgXgXgXgXgXsX{.g gXgXgXgXgXgXgXgXgXgXgXgXgXgXgXgXgXgXgXgXgXgXgXgXgXgXgXgXgXgXgXgXgXgXgX",
"gXgXgXgXgXgXgXgXgXgXgXgXgXgXgXgXgXgXgXgXgXgXgXgXgXgXgX|.5 aXgXgXgXgXgXgXgXgXgXgXgXgXgXgXgXgXgXgXgXgXgXgXgXgXgXgXgXgXgXgXgXgXgXgX",
"gXgXgXgXgXgXgXgXgXgXgXgXgXgXgXgXgXgXgXgXgXgXgXgXgXgX[.7 4 i OXfXgXgXgXgXgXgXgXgXgXgXgXgXgXgXgXgXgXgXgXgXgXgXgXgXgXgXgXgXgXgXgXgX",
"gXgXgXgXgXgXgXgXgXgXgXgXgXgXgXgXgXgXgXgXgXgXgXgXaXl.8 OXpXz.8 z.gXgXgXgXgXgXgXgXgXgXgXgXgXgXgXgXgXgXgXgXgXgXgXgXgXgXgXgXgXgXgXgX",
"gXgXgXgXgXgXgXgXgXgXgXgXgXgXgXgXgXgXgXgXgXgXgXgX}., ,XgXgXgXOX8 h.yXsXgXgXgXgXgXgXgXgXgXgXgXgXgXgXgXgXgXgXgXgXgXgXgXgXgXgXgXgXgX",
"gXgXgXgXgXgXgXgXgXgXgXgXgXgXgXgXgXgXgXgXgXsXsXaXP *.3XgXgXgXgX@X6 =.eXsXsXgXgXgXgXgXgXgXgXgXgXgXgXgXgXgXgXgXgXgXgXgXgXgXgXgXgXgX",
"gXgXgXgXgXgXgXgXgXgXgXgXgXgXgXgXgXgXgXgXgXsXgXT.N `.sXgXgXsXsXsX#Xz A.sXgXsXgXgXgXgXgXgXgXgXgXgXgXgXgXgXgXgXgXgXgXgXgXgXgXgXgXgX",
"gXgXgXgXgXgXgXgXgXgXgXgXgXgXgXgXgXgXgXgXgXsX2X[ D.yXgXgXgXsXgXsXgXE.) ,XgXgXgXgXS.gXgXgXgXS.gXgXgXgXgXgXgXgXgXgXgXgXgXgXgXgXgXgX",
"gXgXgXgXgXgXgXgXgXgXgXgXgXgXgXgXgXgXgXgXgXyX*.=.yXsXgXgXgXgXgXgXgXsXU.6 0XaXsXgXS.gXgXgXgXS.gXgXgXgXgXgXgXgXgXgXgXgXgXgXgXgXgXgX",
"gXgXgXgXgXgXgXgXgXgXgXgXgXgXgXS.S.gXgXgXgX&X( <XsXsXsXgXgXgXgXgXsXgXaX` ~ fXsXgXgXS.gXgXgXS.gXgXgXgXgXgXS.S.gXgXgXgXgXgXgXgXgXgX",
"gXgXgXgXgXgXgXgXgXgXgXgXgXgXgXgXS.gXgXgXgXa.q.gXsXsXgXgXgXgXgXgXgXyX3XZ.z OXsXsXgXS.gXgXS.S.gXgXgXgXS.S.S.S.gXgXgXgXgXgXgXgXgXgX",
"gXgXgXgXgXgXgXgXgXgXgXgXgXgXgXgXS.gXgXaX8X8 +XyXsXsXsXsXsXyXqX>XJ.,.3.3.%.r =XC./.S.sXsXsXgXS.S.S.S.S.gXgXgXgXgXgXgXgXgXgXgXgXgX",
"gXgXgXgXgXgXgXgXgXgXgXgXgXgXgXS.gXsXsXsXk.s ).F.C.C.V.C.3.O.H @.5.~./._.A.> @X_.V.,.^.S.S.S.S.S.S.S.S.S.gXgXgXgXgXgXgXgXgXgXgXgX",
"gXgXgXgXgXgXgXgXgXgXgXgXS.S.S.S.S.S.S.S.i s.3.Q./.6./._.<.L J L.J.S V >.1Xt b._.V._.2.S.S.S.S.S.S.S.S.S.S.gXgXgXgXgXgXgXgXgXgXgX",
"gXgXgXgXgXgXgXgXgXgXS.S.S.S.S.S.S.H S.(.9 ^.X.~.>.S /.J.:.$.A +.Z A V >.`.D.`.| o.:X,.3XgXgXgXS.S.S.S.S.S.S.S.gXgXgXgXgXgXgXgXgX",
"gXgXgXgXgXgXgXgXS.S.S.S.S.S.S.1X@.S.$.U.a <.J S B A @.<.$.J Z $.:.L.L L G $.,.Z.-XK.A.sXsXS.S.S.S.S.S.S.gXgXgXgXgXgXgXgXgXgXgXgX",
"gXgXgXgXgXgXgXS.S.S.S.S.S.S.S.S.S.O.J.R.=.H Z.5.A B  .Z.S J <.1X1X:X..C. .F S.1XS.2.S.S.S.S.S.gXS.gXgXgXgXgXgXgXgXgXgXgXgXgXgXgX",
"gXgXgXgXgXgXgXS.S.S.S.S.S.S.S.S.6.F H Z  .C.yX1XL H `.~.+.F :.2.4.S.S.S.S.S.S.S.S.S.S.S.S.S.gXS.gXgXgXgXgXgXgXgXgXgXgXgXgXgXgXgX",
"gXgXgXgXgXgXgXgXgXgXS.S.S.S.S.:X@.+.K.H.=XeX1X-X<.>.3.3.J.`.:X>X>X`.J.4.5.3.G.:XS.S.S.S.sXsXS.gXgXgXgXgXgXgXgXgXgXgXgXgXgXgXgXgX",
"gXgXgXgXgXgXgXgXS.S.S.S.S.S.S.S.S.S.S.S.S.S.#.;.5.H.>XyXsXgXgXgXgXgXgXsXsXS.S.S.gXgXS.S.S.S.gXgXgXgXgXgXgXgXgXgXgXgXgXgXgXgXgXgX"
};
