/* XPM */
static char *result[] = {
/* columns rows colors chars-per-pixel */
"24 24 5 1 ",
"  c black",
". c #090909",
"X c white",
"o c gray9",
"O c #0C0C0C",
/* pixels */
"                        ",
"                   .    ",
"                        ",
"         XXXXXXXXXXXXXXX",
"         XXXXXXXXXXXXXXX",
"         XXXXXXXXXXXXXXX",
"         XXXoOOOOOOOOOOO",
"         XXXO           ",
"         XXXO           ",
"         XXXXXXXXXXXX   ",
"    .    XXXXXXXXXXXX   ",
"         XXXXXXXXXXXX   ",
"         OOOOOOOOOOOOXXX",
"                     XXX",
"                     XXX",
"                     XXX",
"                     XXX",
"                     XXX",
"         XXXO        XXX",
"         XXXO        XXX",
"         XXXO        XXX",
"            XXXXXXXXX   ",
"            XXXXXXXXX   ",
"            XXXXXXXXX   "
};
