/* XPM */
static char *result[] = {
/* columns rows colors chars-per-pixel */
"24 24 5 1 ",
"  c black",
". c gray3",
"X c white",
"o c gray9",
"O c #0C0C0C",
/* pixels */
"                        ",
"                  .     ",
"                        ",
"                  XXXXXX",
"                  XXXXXX",
"                  XXXXXX",
"               XXXoOOXXX",
"               XXXO  XXX",
"               XXXO  XXX",
"            XXX      XXX",
"            XXX      XXX",
"            XXX      XXX",
"         XXXoOO      XXX",
"         XXXO        XXX",
"         XXXO        XXX",
"         XXXXXXXXXXXXXXX",
"   ...   XXXXXXXXXXXXXXX",
"         XXXXXXXXXXXXXXX",
"         OOOOOOOOOOOOXXX",
"                     XXX",
"                     XXX",
"                     XXX",
"                     XXX",
"                     XXX"
};
