/* XPM */
static char *result[] = {
/* columns rows colors chars-per-pixel */
"24 24 5 1 ",
"  c black",
". c gray4",
"X c white",
"o c gray9",
"O c #0C0C0C",
/* pixels */
"                        ",
"                    .   ",
"                        ",
"         XXXXXXXXXXXXXXX",
"         XXXXXXXXXXXXXXX",
"         XXXXXXXXXXXXXXX",
"         XXXoOOOOOOOOXXX",
"         XXXO        XXX",
"         XXXO        XXX",
"                     XXX",
"                     XXX",
"                     XXX",
"                  XXXOOO",
"                  XXX   ",
"                  XXX   ",
"               XXXO     ",
"               XXXO     ",
"               XXXO     ",
"               XXXO     ",
"               XXXO     ",
"               XXXO     ",
"               XXXO     ",
"               XXXO     ",
"               XXXO     "
};
