/* XPM */
static char *result[] = {
/* columns rows colors chars-per-pixel */
"24 24 4 1 ",
"  c black",
". c white",
"X c gray9",
"o c #0C0C0C",
/* pixels */
"                        ",
"        .........       ",
"        .........       ",
"        .........       ",
"     ...Xoooooooo...o   ",
"     ...o        ...o   ",
"     ...o        ...o   ",
"                 ...o   ",
"                 ...o   ",
"                 ...o   ",
"           ......ooo    ",
"           ......       ",
"           ......       ",
"                 ...o   ",
"                 ...o   ",
"                 ...o   ",
"     ...o        ...o   ",
"     ...o        ...o   ",
"     ...o        ...o   ",
"        .........       ",
"        .........       ",
"        .........       ",
"        ooooooooo       ",
"                        "
};
