/* XPM */
static char *result[] = {
/* columns rows colors chars-per-pixel */
"24 24 6 1 ",
"  c black",
". c white",
"X c #181818",
"o c gray5",
"O c #0C0C0C",
"+ c #010101",
/* pixels */
"                        ",
"        .........       ",
"        .........       ",
"        .........       ",
"     ...Xoooooooo...O   ",
"     ...O        ...O   ",
"     ...O        ...O   ",
"     ...O     ......O   ",
"     ...O     ......O   ",
"     ...O     ......O   ",
"     ...O  ...Xoo...O   ",
"     ...O  ...O  ...O   ",
"     ...O  ...O  ...O   ",
"     ......+++   ...O   ",
"     ......      ...O   ",
"     ......      ...O   ",
"     ...Xoo      ...O   ",
"     ...O        ...O   ",
"     ...O        ...O   ",
"     +++.........+++    ",
"        .........       ",
"        .........       ",
"        ooooooooo       ",
"                        "
};
