/* XPM */
static char *result[] = {
/* columns rows colors chars-per-pixel */
"24 24 3 1 ",
"  c black",
". c white",
"X c #0C0C0C",
/* pixels */
"                        ",
"                        ",
"                        ",
"               ...X     ",
"               ...X     ",
"               ...X     ",
"            ......X     ",
"            ......X     ",
"            ......X     ",
"               ...X     ",
"               ...X     ",
"               ...X     ",
"               ...X     ",
"               ...X     ",
"               ...X     ",
"               ...X     ",
"               ...X     ",
"               ...X     ",
"               ...X     ",
"               ...X     ",
"               ...X     ",
"         ...............",
"         ...............",
"         ..............."
};
