/* XPM */
static char *result[] = {
/* columns rows colors chars-per-pixel */
"64 64 229 2 ",
"   c white",
".  c #FCFCF4",
"X  c #F6F9F4",
"o  c #FDFDFD",
"O  c #FBFBEC",
"+  c #FBF9CB",
"@  c #F4EB93",
"#  c #F4E474",
"$  c #EEE376",
"%  c #F3E782",
"&  c #FAF3AB",
"*  c #FBF9D4",
"=  c #F7F9E7",
"-  c #F8F6F6",
";  c #F4F3EE",
":  c #C4C3C3",
">  c #B5B4B4",
",  c #8B8B8B",
"<  c gray39",
"1  c #7B7B7B",
"2  c #726749",
"3  c #A89439",
"4  c #AF9828",
"5  c #D2C23A",
"6  c #9C9250",
"7  c #5A5748",
"8  c #625C58",
"9  c #84774F",
"0  c #C6B857",
"q  c #D6C954",
"w  c #D9DBD4",
"e  c #F6FAF9",
"r  c #D0C7BC",
"t  c #B7B662",
"y  c #716E55",
"u  c #8C8987",
"i  c #A8A9A7",
"p  c #A4A4A4",
"a  c #D4D5D4",
"s  c #B4B3AD",
"d  c #C7C6A8",
"f  c #DAD6BA",
"g  c #D9D6C8",
"h  c #B8BAB7",
"j  c #BDC1BD",
"k  c #CFD2D1",
"l  c #F7EDA6",
"z  c #D9C756",
"x  c #4E4331",
"c  c #ECECEB",
"v  c #A79A77",
"b  c #B9AB47",
"n  c #ECE789",
"m  c #B6B5A3",
"M  c #BBBCBB",
"N  c gray80",
"B  c #DBDBDA",
"V  c #FBF6EB",
"C  c #F6F1A5",
"Z  c #D7CB68",
"A  c #685529",
"S  c #E0DAD3",
"D  c #FCFBE4",
"F  c #A59957",
"G  c #E6D866",
"H  c #FBF5BA",
"J  c #CBCBC7",
"K  c gray89",
"L  c #B8B7B7",
"P  c #FBF6CC",
"I  c #B7AB57",
"U  c #BDB24C",
"Y  c #DCDCE0",
"T  c #BFC0C0",
"R  c #F8F7D9",
"E  c #EADF9A",
"W  c #CBC153",
"Q  c #8C886E",
"!  c #ACACAC",
"~  c #4A4748",
"^  c #222223",
"/  c #2A2A2A",
"(  c gray23",
")  c #9D9D9C",
"_  c #E5E8E3",
"`  c #E8E5C6",
"'  c #F1EFD9",
"]  c #9C9582",
"[  c #8C8257",
"{  c #0B0B0B",
"}  c #040405",
"|  c gray8",
" . c #525352",
".. c #060608",
"X. c #1B1B1B",
"o. c #959594",
"O. c #C7C6B9",
"+. c #F2EEE8",
"@. c #EFEFF0",
"#. c #F4F4F4",
"$. c #C1BFC1",
"%. c #747474",
"&. c #434444",
"*. c #1D2120",
"=. c gray36",
"-. c #767A74",
";. c #848483",
":. c #7F8079",
">. c #969788",
",. c #FCF6E6",
"<. c #6C6C6C",
"1. c #797766",
"2. c #F1E67C",
"3. c #F4ED9C",
"4. c gray29",
"5. c #C9C7C8",
"6. c #AAA894",
"7. c #F5E97A",
"8. c #F3E66C",
"9. c #F3F3B3",
"0. c #635B47",
"q. c #676965",
"w. c #F2DE53",
"e. c #C4BDB7",
"r. c #585955",
"t. c #766735",
"y. c #CDBD70",
"u. c #756E65",
"i. c #343334",
"p. c #9F9FA0",
"a. c #938F90",
"s. c #433F37",
"d. c #F7F7F8",
"f. c #9B9875",
"g. c #E2E2DA",
"h. c #8F8F90",
"j. c #4F4F50",
"k. c #5E5E61",
"l. c #918F8F",
"z. c #898678",
"x. c #17120F",
"c. c #CFCFD0",
"v. c #958B36",
"b. c #949398",
"n. c #F7F5CB",
"m. c #1E1D21",
"M. c #2C2B25",
"N. c #F5EB8C",
"B. c #39312B",
"V. c #F3ED6F",
"C. c #756B30",
"Z. c #FCFADB",
"A. c #F6E361",
"S. c #9FA195",
"D. c #FBF9C5",
"F. c #ECD947",
"G. c #B1AC8E",
"H. c #D8CA4D",
"J. c #CAB84B",
"K. c #BEA62F",
"L. c #CEC348",
"P. c #C1BCA6",
"I. c #FAF5C4",
"U. c #CFB72F",
"Y. c #BCBA98",
"T. c #F5E556",
"R. c #F6E698",
"E. c #F2E68A",
"W. c #E1CD37",
"Q. c #F3EA84",
"!. c #EDE03E",
"~. c #6F6E70",
"^. c #3E403A",
"/. c #BEAC1E",
"(. c #D6D8D2",
"). c #BDC1AD",
"_. c #D3CBA9",
"`. c #FAF3A3",
"'. c #534E37",
"]. c #C8C798",
"[. c #C9B737",
"{. c #F9F4B5",
"}. c #F6F4C3",
"|. c #F6F194",
" X c #D2CFCD",
".X c #AFA031",
"XX c #EEE8AD",
"oX c #ECE59B",
"OX c #988B39",
"+X c #AA9840",
"@X c #B5A837",
"#X c #EBEAE4",
"$X c #C2A946",
"%X c #68695A",
"&X c #9DA16B",
"*X c #F8E669",
"=X c #E3DBB7",
"-X c #F4F1AD",
";X c #DCD267",
":X c #D5CA7A",
">X c #DFD7D8",
",X c #EFF5E3",
"<X c #F9ED86",
"1X c #CAC067",
"2X c #FAEE9B",
"3X c #F9DD3A",
"4X c #F6E14A",
"5X c #FAE565",
"6X c #F8DA1F",
"7X c #F2DD2C",
"8X c #F8F29B",
"9X c #F6E126",
"0X c #F7E43E",
"qX c #FAEC7A",
"wX c #EFE549",
"eX c #F9DC24",
"rX c #F6DB22",
"tX c #FAE44A",
"yX c #F9E35B",
"uX c #E8E7B9",
"iX c #F6DC39",
"pX c #F8DA0D",
"aX c #F3DE34",
"sX c #F9DE43",
"dX c #EDDF51",
"fX c #EADCA0",
"gX c #F6DF6C",
"hX c #F6E45B",
"jX c #F8DF56",
/* pixels */
"                                        . X . o o     o   X O O O + @ # $ % & + * = - o o                                       ",
"                                        . O ; : > , < < 1 < 2 3 4 5 6 7 8 9 0 q 5 0 w e o o                                     ",
"                                        r t y u , , i p a ; s d f g ; h j k o O l z x : X o                                     ",
"                                . . c v b n m w c c : > M c N B a M N i : M : a V C Z A S .                                     ",
"                              . . D F G H V J B a N N a o o o c N K c - L > i j N B P G I X                                     ",
"                              . . @ U V o Y a .   o a B     o T - o o c - o N i N c e R Z E . o                                 ",
"                              o * W Q X X c K a a K o i o o e c ! < ~ ^ / ( ) _ X . . e ` W ' o                                 ",
"                              o ] [ w o K B / { } |  .N K o - < < N u ..} } X.o.h O.X X +.0 x N                                 ",
"                              > 8 > L @.c #.N $., %.&.*., o X =.( =.o.! -.: ) M h i ;.:.>.` 1 &.N o                             ",
"                              ) ;.K )  . .;.@.K e o #. .,.X X #.a - o - %.=.o.;.&.<.) : o.=.c O. .- o                           ",
"                              p 1 : N #.> =.( <.o c <.1.2.@ 3.+.c - o o o N L : #.: &.> X ;.s o < c                             ",
"                              ) o.N B a 4.o o . 5.^ 6.7.8.9.n 0 0.~ N #.c o - p  .-.o.| =., ! c < c                             ",
"                              B ^ N : q.^ a B N p  .1.w.C e.r.t.y.u.o c i =.*.< K - < ! o 4.a ! i.c o                           ",
"                              . 1 p.  &.| X., #.o o a.s.<.X d._ ] r.&.r.f.g.) 1 h.i.i.K o a L < i                               ",
"                            .   - j.o X.1 &.o.^ q.< k.=.< r.&.=.o.l.2 % Z z.x.i.o.&.c.e X B i.) o                               ",
"                            . o o ^ #.| ( i.: &.#.c j.: c q.a o - m v.A x.4.q.o.1 b.D D n.%.) o                                 ",
"                              . o m.#.i.} } { ..X./ | ^ m.| / ^ X.| M.1 a o a X.1 ; n N.Z 7 o                                   ",
"                              e o B.X q.{ ..} } } } } } ..X.m.-.s K ;.i X N  .p X l V.# C.5.                                    ",
"                              o Z.I = ! / 4.4.p i.c.%.-.B K k.- o   g.( <.r.a o H A.7.3 S..                                     ",
"                              o D.q O ; <.4.4.<.< p.#. .d.- ( : N ;.=.< L K ! f G F.3 G.X o                                     ",
"                              o n.H.O O ; B : 1 1 q.<.&.=.%.%.-.1 L B J : N s J.K.L.e.- X .                                     ",
"                              o P.K.I.#.c : c o c : : M : T c c K > ! > O.d Z U.H.H X . . o                                     ",
"                              . Y.5 T.d k - K K > L a #.#.#.B i : K c.P.b J.R.3.E..                                             ",
"                              . O.W.T.Q.g.: i ! > N - - N B o o #.) ( ] 9.Z.. D D . o                                           ",
"                                O G !.w.3.X o o o     e c i ~.4.i.~ ^.N X o e o . . .                                           ",
"                                o * F./.L.6.i s i i %.&.r.-./ ) (.F ).~ _.D . o                                                 ",
"                              .     P `.G 6.i p p i g.n.g '.].X O q ].g 3 G I..                                                 ",
"                                .   X Z.# D . . . X D G t.[.C o O n F X g t.z {..                                               ",
"                            .       . D l D . . o D N.4 b C X o . }.2 (.. k A z Z.                                              ",
"                            .       . . }.D     . |.U.U.3.O . . o X G.Q o o  X.XXXo .                                           ",
"                                    . . E.+   O l [.I 3.X . . . . . oXOXe . Z.F.+XB e                                           ",
"                                    . . 3.* . V I f.X . e       .   H @X#X. . N.$X%XX                                           ",
"                                      . V o . g. .#X.   .       .   Z.J.r o o D $ C.5.                                          ",
"                                    . * X o o l.&X. .         .     O q G.o .   {.U u.o o                                       ",
"                                    O n D o o 6.G = .         .     O G f.  . . O % t.K                                         ",
"                                    o I..     Z.*XO .               . =X0..     o n.` e   .                                     ",
"                                              + # .                 . XX7 .     . . o . .                                       ",
"                                              + 3..                 . @ 9 .         D l D                                       ",
"                                              . D .                 . R.OX. . .     D.% .                                       ",
"                                              . -XZ.                . @ @Xo . .     * C .                                       ",
"                                              . 2.*                   XXJ.. . . . . . o .                                       ",
"                                          . . . = . .               . Y.;X. .   .     . . .                                     ",
"                                          . D D .                     z.;XO .   .   O -XO .                                     ",
"                                          . 9.-X.                     -._.. .   .   Z.2.D o                                     ",
"                                          . -X9..                   o -.J .   .     . * .                                       ",
"                                            O O                     X 4.N             o . .                                     ",
"                                            .                   e a q.~ j.: o o       o                                         ",
"                                                                L  .L - a  .> X                                                 ",
"                                                          . O !  .a o o o g.'.5.                                                ",
"                                                      . . D :X7 w o       Z.;X[ X . .                                           ",
"                                                    .   . E.v.>X. . .     . H [.f o .                                           ",
"                                                    o   g.J.=Xo .   .     o O oXW R .                                           ",
"                                                  . X ,X7 O.. o             . O :X;XO                                           ",
"                                                  . e v y.X   .           . . . ' $X`                                           ",
"                                            .   . . a v.<XZ.O o             . . o ] 6.                                          ",
"                                      . . . D & Q.I.%X1X# # 8.2X+ ,.O . . . . . O (. .c X o   .                                 ",
"                                      . . -X8.% {.w x E.{.& `.7.T.3X4X# Q.% Q.Q.@ 9.1.s . . .                                   ",
"                                      . Z.$ {.% {.e.y * 5X6X7X2X8X9X0X*X{.& qX& l # Y.q.R Q.H .                                 ",
"                                        Z.8.P wXF.H oXH 5X6XeXrXtXeXyXA.2X& 7X5X`.w.-Xr.uX4X3XH .   .                           ",
"                                      . . E.|.D.<X8.yXiX0X0X8XA.yXrX9XyX*XT.eXpX7X9X*Xu.O.yXeXT.* . .                           ",
"                                      . o Z.$ N.* N.aXsXQ.dXP * * *X9X7X<XsXpXeX7.<X3X:XfX2X4X<Xl .                             ",
"                                      . . o D 3.# 8XV.4X& Q.7.2.$ A.aXtX`.H 3X0X* O Q.sXrX3XaXqX|.. .                           ",
"                                    . . .   . . P R.# 7.2.2XH + + P H 2X# # 5X*XD.* D I.3.|.tXT.P   .                           ",
"                                                  . . . .             . O + 3.7.gXhXT.yXyXjX*XP                                 "
};
