/* XPM */
static char *result[] = {
/* columns rows colors chars-per-pixel */
"64 64 227 2 ",
"   c white",
".  c #FCFCF4",
"X  c #F6F9F4",
"o  c #FBFBEC",
"O  c #FBF9CB",
"+  c #F4EB93",
"@  c #F4E474",
"#  c #EEE376",
"$  c #F3E782",
"%  c #FAF3AB",
"&  c #FBF9D4",
"*  c #F7F9E7",
"=  c #F8F6F6",
"-  c #F4F3EE",
";  c #C4C3C3",
":  c #B5B4B4",
">  c #8B8B8B",
",  c gray39",
"<  c #7B7B7B",
"1  c #726749",
"2  c #A89439",
"3  c #AF9828",
"4  c #D2C23A",
"5  c #9C9250",
"6  c #5A5748",
"7  c #625C58",
"8  c #84774F",
"9  c #C6B857",
"0  c #D6C954",
"q  c #D9DBD4",
"w  c #F6FAF9",
"e  c #D0C7BC",
"r  c #B7B662",
"t  c #716E55",
"y  c #8C8987",
"u  c #A8A9A7",
"i  c #A4A4A4",
"p  c #D4D5D4",
"a  c #B4B3AD",
"s  c #C7C6A8",
"d  c #DAD6BA",
"f  c #D9D6C8",
"g  c #B8BAB7",
"h  c #BDC1BD",
"j  c #CFD2D1",
"k  c #F7EDA6",
"l  c #D9C756",
"z  c #4E4331",
"x  c #ECECEB",
"c  c #A79A77",
"v  c #B9AB47",
"b  c #ECE789",
"n  c #B6B5A3",
"m  c #BBBCBB",
"M  c gray80",
"N  c #DBDBDA",
"B  c #FBF6EB",
"V  c #F6F1A5",
"C  c #D7CB68",
"Z  c #685529",
"A  c #E0DAD3",
"S  c #FCFBE4",
"D  c #A59957",
"F  c #E6D866",
"G  c #FBF5BA",
"H  c #CBCBC7",
"J  c gray89",
"K  c #B8B7B7",
"L  c #FBF6CC",
"P  c #B7AB57",
"I  c #BDB24C",
"U  c #DCDCE0",
"Y  c #BFC0C0",
"T  c #F8F7D9",
"R  c #EADF9A",
"E  c #CBC153",
"W  c #8C886E",
"Q  c #ACACAC",
"!  c #4A4748",
"~  c #222223",
"^  c #2A2A2A",
"/  c gray23",
"(  c #9D9D9C",
")  c #E5E8E3",
"_  c #E8E5C6",
"`  c #F1EFD9",
"'  c #9C9582",
"]  c #8C8257",
"[  c #0B0B0B",
"{  c #040405",
"}  c gray8",
"|  c #525352",
" . c #060608",
".. c #1B1B1B",
"X. c #959594",
"o. c #C7C6B9",
"O. c #F2EEE8",
"+. c #EFEFF0",
"@. c #F4F4F4",
"#. c #C1BFC1",
"$. c #747474",
"%. c #434444",
"&. c #1D2120",
"*. c gray36",
"=. c #767A74",
"-. c #848483",
";. c #7F8079",
":. c #969788",
">. c #FCF6E6",
",. c #6C6C6C",
"<. c #797766",
"1. c #F1E67C",
"2. c #F4ED9C",
"3. c gray29",
"4. c #C9C7C8",
"5. c #AAA894",
"6. c #F5E97A",
"7. c #F3E66C",
"8. c #F3F3B3",
"9. c #635B47",
"0. c #676965",
"q. c #F2DE53",
"w. c #C4BDB7",
"e. c #585955",
"r. c #766735",
"t. c #CDBD70",
"y. c #756E65",
"u. c #343334",
"i. c #9F9FA0",
"p. c #938F90",
"a. c #433F37",
"s. c #F7F7F8",
"d. c #9B9875",
"f. c #E2E2DA",
"g. c #8F8F90",
"h. c #4F4F50",
"j. c #5E5E61",
"k. c #918F8F",
"l. c #898678",
"z. c #17120F",
"x. c #CFCFD0",
"c. c #958B36",
"v. c #949398",
"b. c #F7F5CB",
"n. c #1E1D21",
"m. c #2C2B25",
"M. c #F5EB8C",
"N. c #39312B",
"B. c #F3ED6F",
"V. c #756B30",
"C. c #FCFADB",
"Z. c #F6E361",
"A. c #9FA195",
"S. c #FBF9C5",
"D. c #ECD947",
"F. c #B1AC8E",
"G. c #D8CA4D",
"H. c #CAB84B",
"J. c #BEA62F",
"K. c #CEC348",
"L. c #C1BCA6",
"P. c #FAF5C4",
"I. c #CFB72F",
"U. c #BCBA98",
"Y. c #F5E556",
"T. c #F6E698",
"R. c #F2E68A",
"E. c #E1CD37",
"W. c #F3EA84",
"Q. c #EDE03E",
"!. c #6F6E70",
"~. c #3E403A",
"^. c #BEAC1E",
"/. c #D6D8D2",
"(. c #BDC1AD",
"). c #D3CBA9",
"_. c #FAF3A3",
"`. c #534E37",
"'. c #C8C798",
"]. c #C9B737",
"[. c #F9F4B5",
"{. c #F6F4C3",
"}. c #F6F194",
"|. c #D2CFCD",
" X c #AFA031",
".X c #EEE8AD",
"XX c #ECE59B",
"oX c #988B39",
"OX c #AA9840",
"+X c #B5A837",
"@X c #EBEAE4",
"#X c #C2A946",
"$X c #68695A",
"%X c #9DA16B",
"&X c #F8E669",
"*X c #E3DBB7",
"=X c #DCD267",
"-X c #D5CA7A",
";X c #DFD7D8",
":X c #EFF5E3",
">X c #F9ED86",
",X c #CAC067",
"<X c #FAEE9B",
"1X c #F4F1AD",
"2X c #F9DD3A",
"3X c #F6E14A",
"4X c #FAE565",
"5X c #F8DA1F",
"6X c #F2DD2C",
"7X c #F8F29B",
"8X c #F6E126",
"9X c #F7E43E",
"0X c #FAEC7A",
"qX c #EFE549",
"wX c #F9DC24",
"eX c #F6DB22",
"rX c #FAE44A",
"tX c #F9E35B",
"yX c #E8E7B9",
"uX c #F6DC39",
"iX c #F8DA0D",
"pX c #F3DE34",
"aX c #F9DE43",
"sX c #EDDF51",
"dX c #EADCA0",
"fX c #F6DF6C",
"gX c #F6E45B",
/* pixels */
"                                        . X .             X o o o O + @ # $ % O & * =                                           ",
"                                        . o - ; : > , , < , 1 2 3 4 5 6 7 8 9 0 4 9 q w                                         ",
"                                        e r t y > > u i p - a s d f - g h j   o k l z ; X                                       ",
"                                . . x c v b n q x x ; : m x M N p m M u ; m ; p B V C Z A .                                     ",
"                              . . S D F G B H N p M M p       x M J x = K : u h M N L F P X                                     ",
"                              . . + I B   U p .     p N       Y =     x =   M u M x w T C R .                                   ",
"                                & E W X X x J p p J   u     w x Q , ! ~ ^ / ( ) X . . w _ E `                                   ",
"                                ' ] q   J N ^ [ { } | M J   = , , M y  .{ { ..X.g o.X X O.9 z M                                 ",
"                              : 7 : K +.x @.M #.> $.%.&.>   X *./ *.X.Q =.; ( m g u -.;.:._ < %.M                               ",
"                              ( -.J ( | | -.+.J w   @.| >.X X @.p =   = $.*.X.-.%.,.( ; X.*.x o.| =                             ",
"                              i < ; M @.: *./ ,.  x ,.<.1.+ 2.O.x =       M K ; @.; %.: X -.a   , x                             ",
"                              ( X.M N p 3.    . 4.~ 5.6.7.8.b 9 9.! M @.x   = i | =.X.} *.> Q x , x                             ",
"                              N ~ M ; 0.~ p N M i | <.q.V w.e.r.t.y.  x u *.&., J = , Q   3.p Q u.x                             ",
"                              . < i.  %.} ..> @.    p.a.,.X s.) ' e.%.e.d.f.( < g.u.u.J   p K , u                               ",
"                            .   = h.  ..< %.X.~ 0., j.*., e.%.*.X.k.1 $ C l.z.u.X.%.x.w X N u.(                                 ",
"                            .     ~ @.} / u.; %.@.x h.; x 0.p   = n c.Z z.3.0.X.< v.S S b.$.(                                   ",
"                              .   n.@.u.{ { [  ...^ } ~ n.} ^ ~ ..} m.< p   p ..< - b M.C 6                                     ",
"                              w   N.X 0.[  .{ { { { { {  ...n.=.a J -.u X M | i X k B.@ V.4.                                    ",
"                                C.P * Q ^ 3.3.i u.x.$.=.N J j.=     f./ ,.e.p   G Z.6.2 A..                                     ",
"                                S.0 o - ,.3.3.,., i.@.| s.= / ; M -.*., K J Q d F D.2 F.X                                       ",
"                                b.G.o o - N ; < < 0.,.%.*.$.$.=.< K N H ; M a H.J.K.w.= X .                                     ",
"                                L.J.P.@.x ; x   x ; ; m ; Y x x J : Q : o.s C I.G.G X . .                                       ",
"                              . U.4 Y.s j = J J : K p @.@.@.N u ; J x.L.v H.T.2.R..                                             ",
"                                o.E.Y.W.f.; u Q : M = = M N     @.( / ' 8.C.. S S .                                             ",
"                                o F Q.q.2.X           w x u !.3.u.! ~.M X   w   . . .                                           ",
"                                  & D.^.K.5.u a u u $.%.e.=.^ ( /.D (.! ).S .                                                   ",
"                                    L _.F 5.u i i u f.b.f `.'.X o 0 '.f 2 F P..                                                 ",
"                                    X C.@ S . . . X S F r.].V   o b D X f r.l [..                                               ",
"                                            . .   S M.3 v V X   . {.1 /.. j Z l C.                                              ",
"                                                . }.I.I.2.o . .   X F.W     |. X.X  .                                           ",
"                                              o k ].P 2.X . . . . . XXoXw . C.D.OXN w                                           ",
"                                            . B P d.X . w       .   G +X@X. . M.#X$XX                                           ",
"                                            . f.| @X.   .       .   C.H.e     S # V.4.                                          ",
"                                              k.%X. .         .     o 0 F.  .   [.I y.                                          ",
"                                              5.F * .         .     o F d.  . . o $ r.J                                         ",
"                                              C.&Xo .               . *X9..       b._ w   .                                     ",
"                                              O @                   . .X6 .     . .   . .                                       ",
"                                                                    . + 8 .                                                     ",
"                                                                    . T.oX. . .                                                 ",
"                                                                    . + +X                                                      ",
"                                                                      .XH..                                                     ",
"                                                                    . U.=X.                                                     ",
"                                                                      l.=Xo                                                     ",
"                                                                      =.)..                                                     ",
"                                                                      =.H .                                                     ",
"                                                                    X 3.M                                                       ",
"                                                                w p 0.! h.;                                                     ",
"                                                                K | K = p | : X                                                 ",
"                                                          . o Q | p       f.`.4.                                                ",
"                                                      . . S -X6 q         C.=X] X . .                                           ",
"                                                    .   . R.c.;X. . .     . G ].d   .                                           ",
"                                    M.        M.        f.H.*X  .   .       o XXE T .                                           ",
"                                    M.        M.  . X :X6 o..               . o -X=Xo                                           ",
"                    M.M.            M.      M.    . w c t.X   .           . . . ` #X_         M.M.                              ",
"                    M.M.M.M.        M.M.    M.  . . p c.>XC.o               . .   ' 5.        M.                                ",
"                          M.M.M.M.M.  . . . M.% W.P.$X,X@ @ 7.<XO >.o . . . . . o /.| x X     M.                                ",
"                        M.M.M.M.M.M.M.M.M.1X7.$ [.q z R.[.% _.6.Y.2X3X@ W.$ W.W.+ 8.<.a . . .   M.                              ",
"                      M.M.M.M.M.M.M.M.M.M.# [.$ [.w.t & 4X5X6X<X7X8X9X&X[.% 0X% k @ U.0.M.M.M.M.M.M.M.M.                        ",
"                  M.M.M.M.M.M.M.M.      C.7.L qXD.G XXG 4X5XwXeXrXwXtXZ.<X% 6X4X_.q.1Xe.yXM.2XM.M.M.M.M.M.M.                    ",
"                        M.M.M.M.M.M.M.. . R.}.S.>X7.tXuX9X9X7XZ.tXeX8XtX&XY.wXiX6X8X&Xy.o.tXM.Y.& M.M.M.M.M.M.M.                ",
"                              M.  M.M.M.M.M.# M.& M.pXaXW.sXL & & &X8X6X>XaXiXwX6.>X2X-XdX<X3XM.M.M.M.M.M.M.M.M.M.              ",
"                                M.  M.M.M.M.M.M.M.M.M.M.M.M.M.1.# Z.pXrX_.G 2X9X& o W.aXeX2XpX0XM.M.M.M.M.M.M.M.M.              ",
"                                  M.. . M.M.M.M.L T.@ 6.1.<XG O O L G <X@ @ 4X&XS.& S P.2.}.rXY.L M.M.M.M.M.                    ",
"                                    M.M.M.M.    M.M.M.. .             . o O 2.6.fXgXM.M.M.M.M.M.M.M.M.M.M.M.M.M.                "
};
