/* XPM */
static char *_ec619f04e8143ab8b0a30957f7a3eaaxrWnF39r0jlbu6DI[] = {
/* columns rows colors chars-per-pixel */
"64 64 205 2 ",
"   c #FDCB33",
".  c #FCCC3C",
"X  c #F6CD3A",
"o  c #B8A05F",
"O  c #918E7D",
"+  c #99947F",
"@  c #A29568",
"#  c #AA9A71",
"$  c #A59A7C",
"%  c #AD9D7C",
"&  c #B69C77",
"*  c #B9A260",
"=  c #BAA56B",
"-  c #B4A272",
";  c #B6A679",
":  c #BAA578",
">  c #CBB25D",
",  c #D2B65F",
"<  c #E1BE5D",
"1  c #C6AA68",
"2  c #CCB46C",
"3  c #DBBB65",
"4  c #D3B967",
"5  c #C2A778",
"6  c #C9B373",
"7  c #CFBA7B",
"8  c #C7B47D",
"9  c #D2BA73",
"0  c #D3BA78",
"q  c #ECCB49",
"w  c #F8C741",
"e  c #F5CB44",
"r  c #FCCC43",
"t  c #FEC649",
"y  c #F5CA4B",
"u  c #FACB4B",
"i  c #F3C74E",
"p  c #FED044",
"a  c #F6D14E",
"s  c #FDD24C",
"d  c #E3C254",
"f  c #EBCA56",
"g  c #E3C65A",
"h  c #EBC45C",
"j  c #EDC557",
"k  c #F3C654",
"l  c #F5CC53",
"z  c #F9CE53",
"x  c #F6CF5C",
"c  c #FACD5B",
"v  c #ECD25F",
"b  c #FCD354",
"n  c #F5D15D",
"m  c #FCD55B",
"M  c #F1D156",
"N  c #DDC56C",
"B  c #D7C074",
"V  c #D8C076",
"C  c #EBCC66",
"Z  c #E7C868",
"A  c #EACB69",
"S  c #E6C561",
"D  c #F4CD63",
"F  c #F8CF65",
"G  c #F2CE6D",
"H  c #EFD965",
"J  c #F5D264",
"K  c #FBD262",
"L  c #F5D36C",
"P  c #F1D86F",
"I  c #FADB6D",
"U  c #FCD961",
"Y  c #E1C472",
"T  c #E5CB72",
"R  c #E6C478",
"E  c #E4CA7B",
"W  c #EDCD7A",
"Q  c #F1CC75",
"!  c #EFD479",
"~  c #F1D471",
"^  c #F5D975",
"/  c #858584",
"(  c #8C8C8C",
")  c #8C8782",
"_  c #9D8D89",
"`  c #9A9585",
"'  c #94948C",
"]  c #9D9B8C",
"[  c #9C978A",
"{  c #9C8E94",
"}  c #949494",
"|  c #989695",
" . c #969899",
".. c #9B9B9B",
"X. c #939198",
"o. c #A09F8F",
"O. c #A49A84",
"+. c #A39A96",
"@. c #ADA082",
"#. c #ACA489",
"$. c #A6A08C",
"%. c #B5A386",
"&. c #B2A98C",
"*. c #B0A68B",
"=. c #ACA19B",
"-. c #ADA891",
";. c #B4AB90",
":. c #B7B09F",
">. c #A39FA4",
",. c #A3A3A3",
"<. c #ABABA3",
"1. c #A8A7AB",
"2. c #ABABAB",
"3. c #A5A8A2",
"4. c #B6B4A7",
"5. c #B0B1AE",
"6. c #AEADB0",
"7. c #B4B4B4",
"8. c #B7B9B9",
"9. c #BBBBBC",
"0. c #B7BAB3",
"q. c #C6AE84",
"w. c #CBB68D",
"e. c #C5B98C",
"r. c #CBB987",
"t. c #C1B590",
"y. c #C0BBB3",
"u. c #DDDB91",
"i. c #E1C680",
"p. c #EFDB87",
"a. c #E2D799",
"s. c #EAE18A",
"d. c #D2CEAD",
"f. c #C7C4BD",
"g. c #C4C0B4",
"h. c #E0CFAC",
"j. c #F7ECB9",
"k. c #BCAFC3",
"l. c #BEB7C0",
"z. c #C4C4C4",
"x. c #CCCAC1",
"c. c #C9C6C8",
"v. c #CCCCCC",
"b. c #C5C8C2",
"n. c #D8D6CF",
"m. c #D4D4D4",
"M. c #D8D7D7",
"N. c #D7D6D9",
"B. c #DDDCDC",
"V. c #DCE2DF",
"C. c #F3EEC9",
"Z. c #FEF1CE",
"A. c #E2E2DE",
"S. c #E6E5D2",
"D. c #FCF6D3",
"F. c #FDFAD6",
"G. c #FDFBDB",
"H. c #D8D8E0",
"J. c #E0DFE0",
"K. c #E7DBE9",
"L. c #E4E4E4",
"P. c #ECEAE1",
"I. c #E7E9E9",
"U. c #ECECEC",
"Y. c #FDFAE3",
"T. c #FDFBED",
"R. c #F3F3F3",
"E. c #F2F2F2",
"W. c #F1F1F1",
"Q. c #F4F4F4",
"!. c gray96",
"~. c #F6F6F6",
"^. c gray97",
"/. c #F5F5F5",
"(. c #F4F4F5",
"). c #F8F6F4",
"_. c #F4FBF5",
"`. c #FCFDF6",
"'. c #FBFCF5",
"]. c #F7F6F9",
"[. c #F9F6F8",
"{. c #F7FBF9",
"}. c #F8F8F8",
"|. c #F9F9F9",
" X c gray98",
".X c #FBFBFB",
"XX c #FBFAFB",
"oX c #FAFAF9",
"OX c #FBFDF8",
"+X c #FFFFF8",
"@X c #FDFDFA",
"#X c #FBFBFC",
"$X c #FCFBFD",
"%X c #FBFDFD",
"&X c gray99",
"*X c #FDFDFD",
"=X c #FDFEFD",
"-X c #FFFFFD",
";X c #FEFEFD",
":X c #FDFDFF",
">X c #FEFEFE",
",X c white",
"<X c #FFFFFE",
"1X c #FEFDFE",
"2X c #FFFFFF",
/* pixels */
",X,X,X,X,X,X,X,X,X,X,X,X,X,X,X,X,X,X,X,X,X,X,X,X,X,X,X,X,X,X,X,X,X,X,X,X,X,X,X,X,X,X,X,X,X,X,X,X,X,X,X,X,X,X,X,X,X,X,X,X,X,X,X,X",
",X,X,X,X,X,X,X,X,X,X,X,X,X,X,X,X,X,X,X,X,X,X,X,X,X,X,X,X,X,X,X,X,X,X,X,X,X,X,X,X,X,X,X,X,X,X,X,X,X,X,X,X,X,X,X,X,X,X,X,X,X,X,X,X",
",X,X,X,X,X,X,X,X,X,X,X,X,X,X,X,X,X,X,X,X,X,X,X,X,X,X,X,X,X,X,X,X,X,X,X,X,X,X,X,X,X,X,X,X,X,X,X,X,X,X,X,X,X,X,X,X,X,X,X,X,X,X,X,X",
",X,X,X,X,X,X,X,X,X,X,X,X,X,X,X,X,X,X,X,X,X,X,X,X,X,X,X,X,X,X,X,X,X,X,X,X,X,X,X,X,X,X,X,X,X,X,X,X,X,X,X,X,X,X,X,X,X,X,X,X,X,X,X,X",
",X,X,X,X,X,X,X,X,X,X,X,X,X,X,X,X,X,X,X,X,X,X,X,X,X,X,X,X,X,X,X,X,X,X,X,X,X,X,X,X,X,X,X,X,X,X,X,X,X,X,X,X,X,X,X,X,X,X,X,X,X,X,X,X",
",X,X,X,X,X,X,X,X,X,X,X,X,X,X,X,X,X,X,X,X,X,X,X,X,X,X,X,X,X,X,X,X,X,X,X,X,X,X,X,X,X,X,X,X,X,X,X,X,X,X,X,X,X,X,X,X,X,X,X,X,X,X,X,X",
",X,X,X,X,X,X,X,X,X,X,X,X,X,X,X,X,X,X,X,X,X,X,X,X,X,X,X,X,X,X,X,X,X,X,X,X,X,X,X,X,X,X,X,X,X,X,X,X,X,X,X,X,X,X,X,X,X,X,X,X,X,X,X,X",
",X,X,X,X,X,X,X,X,X,X,X,X,X,X,X,X,X,X,X,X,X,X,X,X,X,X,X,X,X,X,X,X,X,X,X,X,X,X,X,X,X,X,X,X,X,X,X,X,X,X,X,X,X,X,X,X,X,X,X,X,X,X,X,X",
",X,X,X,X,X,X,X,X,X,X,X,X,X,X,X,X,X,X,X,X,X,X,X,X,X,X,X,X,X,X,X,X,X,X,X,X,X,X,X,X,X,X,X,X,X,X,X,X,X,X,X,X,X,X,X,X,X,X,X,X,X,X,X,X",
",X,X,X,X,X,X,X,X,X,X,X,X,X,X,X,X,X,X,X,X,X,X,X,X,X,X,X,X,X,X,X,X,X,X,X,X,X,X,X,X,X,X,X,X,X,X,X,X,X,X,X,X,X,X,X,X,X,X,X,X,X,X,X,X",
",X,X,X,X,X,X,X,X,X,X,X,X,X,X,X,X,X,X,X,X,X,X,X,X,X,X,X,X,X,X,X,X,X,X,X,X,X,X,X,X,X,X,X,X,X,X,X,X,X,X,X,X,X,X,X,X,X,X,X,X,X,X,X,X",
",X,X,X,X,X,X,X,X,X,X,X,X,X,X,X,X,X,X,X,X,X,X,X,X,X,X,X,X,X,X,X,X,X,X,X,X,X,X,X,X,X,X,X,X,X,X,X,X,X,X,X,X,X,X,X,X,X,X,X,X,X,X,X,X",
",X,X,X,X,X,X,X,X,X,X,X,X,X,X,X,X,X,X,X,X,X,X,X,X,X,X,X,X,X,X,X,X,X,X,X,X,X,X,X,X,X,X,X,X,X,X,X,X,X,X,X,X,X,X,X,X,X,X,X,X,X,X,X,X",
",X,X,X,X,X,X,X,X,X,X,X,X,X,X,X,X,X,X|.,X,X,X,X,X|.|.R.I.L.L.L.L.B.L.I.|.|.,X,X,X,X,X,X,X,X,X,X,X,X,X,X,X,X,X,X,X,X,X,X,X,X,X,X,X",
",X,X,X,X,X,X,X,X,X,X,X,X,X,X,X,X,X,X,X~.~.U.B.v.z.9.2.,.............,.7.z.B.U.R.|.|.,X,X,X,X,X|.,X,X,X,X,X,X,X,X,X,X,X,X,X,X,X,X",
",X,X,X,X,X,X,X,X,X,X,X,X,X,X,X,X,XU.m.9.,...} ....,.7.v.L.L.L.L.L.B.z.2...} ..2.7.z.v.v.m.m.L.U.R.~.,X,X,X,X|.,X,X,X,X,X,X,X,X,X",
",X,X,X,X,X,X,X,X,X,X,X,X,X~.L.z.2...} ,.9.v.L.I.~.|.,X,X,X,X,X,X,X,X,X|.U.B.v.9.2.........} } ....,.2.9.z.I.|.,X,X,X,X,X,X,X,X,X",
",X,X,X,X,X,X,X,X,X,X,X,XI.9.....7.v.U.~.|.,X,X,X|.,X,X,X,X,X,X,X,X,X,X,X,X,X,X|.~.R.R.R.U.I.B.v.v.9.,.( / z.|.|.,X,X,X,X,X,X,X,X",
",X,X,X,X,X,X,X,X,X,X|.U.v...z.U.|.,X,X,X,X,X,X,X,X,X,X,X,X,X,X,X,X,X,X,X,X,X,X,X,X&X|.,X,X,X|.|.|.m.../ ( B.,X,X|.,X,X,X,X,X,X,X",
",X,X,X,X,X,X,X,X,X,XR.,.} 9.U.|.,X,X,X,X,X,X,X,X,X,X,X,X,X,X,X,X,X,X,X,X,X,X,X,X,X,X,X,X|.,X|.L.7.( 7.,.,.R.,X,X,X,X,X,X,X,X,X,X",
",X,X,X,X,X,X,X,X,X,XR.,.} } ,.v.I.|.|.,X,X,X,X,X,X,X,X,X,X,X,X,X,X,X,X,X|.%X|.,X,X,X,X~.U.B.7.} ..v.B...v.,X,X,X,X,X,X,X,X,X,X,X",
",X,X,X,X,X,X,X,X,X,X,Xm.} 9.7.} ,.z.L.|.|.,X,X,X,X,X|.|.~.~.~.~.~.~.~.~.~.~.~.R.L.m.z.2.,.} ..9.L.|.z.} I.,X,X,X,X,X,X,X,X,X,X,X",
",X,X,X,X,X,X,X,X,X,X,X~.,.z.~.L.7.} ..9.v.B.B.B.L.m.9.7.2.,.,.,.,.,.,.,.,.,.....} } ..2.9.B.R.,X,XU.,.7.,X,X,X,X,X,X,X,X,X,X,X,X",
",X,X,X,X,X,X,X,X,X,X,X,X7.2.~.,X,XI.z.2.........} ..,.5.7.z.z.z.z.z.z.z.v.z.v.m.B.L.R.|.,X,X,X|.,Xz.} B.,X,X,X,X,X,X,X,X,X,X,X,X",
",X,X,X,X,X,X,X,X,X,X|.,Xz...U.,X|.,X|.R.U.I.L.L.L.m.2.B.|.|.|.|.|.|.,X|.|.,X,X,X,X,X|.|.|.&X,X,XI...7.|.,X,X,X,X,X,X,X,X,X,X,X,X",
",X,X,X,X,X,X,X,X,X,X,X,Xz...I.,X,X,X,X,X,X,X,X~.m.2.7.U.,X,X,X,X,X,X,X,X,X,X|.,X,X,X,X,X,X,X,X|.v.} L.,X,X,X,X,X,X,X,X,X,X,X,X,X",
",X,X,X,X,X,X,X,X,X,X,X|.B.} v.,X,X,X,X,X,X,XU.9.,.v.R.,X|.,X,X,X,X,X,XI.M.R.,X,X,X,X,X,X,X,X,X~...9.|.|.,X,X,X,X,X,X,X,X,X,X,X,X",
",X,X,X,X,X,X,X,X,X,X,X|.R.7.,.R.%X%X|.|.'.L.7.5.m.~.,X,X,X%X,X,X%X&XQ.z.7.I.,X,X,X,X,X,X|.|.,Xv.} L.,X|.,X,X,X,X,X,X,X,X,X,X,X,X",
",X,X,X,X,X,X,X,X,X,X,X,X,Xm...m.$X|.|.R.m.2.7.L.|.,X,X,X,X,X,X|.,X~.b.3.B.%X&X`.`.&X&X&X,X,XU.2.2.|.,X,X,X,X,X,X,X,X,X,X,X,X,X,X",
",X,X,X,X,X,X,X,X,X,X,X,X,X~.2.2.)..X~.c.2.z.E.,X#X&X,X,X,X,X,X$X~.v.6.N.].,X,X,X,X,X,X&X&X&XB...m.,X,X,X,X,X,X,X,X,X,X,X,X,X,X,X",
",X,X,X,X,X,X,X,X,X,X,X,X,X,Xv.| I.|.|.U.L.~.,X,X,X,X,X,X,X,X,XU.f.3.v.&X&X&X&X&X&X&X&X`.`.%X7.,.R.,X,X,X,X,X,X,X,X,X,X,X,X,X,X,X",
",X,X,X,X,X,X,X,X,X,X,X,X,X,XI.} z.{.'.'.`.&X'.`.,X|.,X,X|.[.I.y.-.d.C.D.D.F.F.F.F.F.F.G.Y.P.| z.|.,X,X,X,X,X,X,X,X,X,X,X,X,X,X,X",
",X,X,X,X,X,X,X,X,X,X,X,X,X,X,Xk.>.S.j.j.Z.D.F.G.Y.T.T.P.n.y.=.%.i.^ J J L L L L L ~ ~ ! p.h.{ B.,X,X,X,X,X,X,X,X,X,X,X,X,X,X,X,X",
",X,X,X,X,X,X,X,X,X,X,X,X,X,X,XK.+.w.Q c G C H ! s.u.e.@.% & 9 C l s b b b b m m m m U z G q.=.U.,X,X,X,X,X,X,X,X,X,X,X,X,X,X,X,X",
",X,X,X,X,X,X,X,X,X,X,X,X,X,X,X_.0.$ W K c K n < 6 = * > g k u . r r . . . . . r r r s a W % f.{.,X,X,X,X,X,X,X,X,X,X,X,X,X,X,X,X",
",X,X,X,X,X,X,X,X,X,X,X,X,X,X,X_.V.$.9 J D R 2 o = > d e e . . r t r   . . . . . r r p P w._ A.{.,X,X,X,X,X,X,X,X,X,X,X,X,X,X,X,X",
",X,X,X,X,X,X,X,X,X,X,X,X,X,X,X&X|.g.= A S 1 : 2 f e X . t u u u r . . . r r r r r r a a.O.l.^.%X,X,X,X,X,X,X,X,X,X,X,X,X,X,X,X,X",
",X,X,X,X,X,X,X,X,X,X,X,X,X,X,X`.%XL.$ B f d T q           s b u e r r . s b u z u w v &.o.I.,X%X,X,X,X,X,X,X,X,X,X,X,X,X,X,X,X,X",
",X,X,X,X,X,X,X,X,X,X,X,X,X,X,X`.%X|.:.: G z I l e r r . . . r r . r t r q g c b z z N O.x.,X,X&X,X,X,X,X,X,X,X,X,X,X,X,X,X,X,X,X",
",X,X,X,X,X,X,X,X,X,X,X,X,X,X,X'.,X|.A.$ 3 u n I m s r .   . . . r r u k 1 *.L m l D - 4.).|.$X,X,X,X,X,X,X,X,X,X,X,X,X,X,X,X,X,X",
",X,X,X,X,X,X,X,X,X,X,X,X,X,X,X,X,X%X_.<.5 D L J s . .     r z m F G E %.' 6 l i M , ` V.&X'.&X$X,X,X,X,X,X,X,X,X,X,X,X,X,X,X,X,X",
",X,X,X,X,X,X,X,X,X,X,X,X,X,X,X,X,X,X|.z.[ E m .         . s m m Y &.' ] e.W K G T @ z.|.,X,X,X,X,X,X,X,X,X,X,X,X,X,X,X,X,X,X,X,X",
",X,X,X,X,X,X,X,X,X,X,X,X,X,X,X,X,X,X|.N.X.2 s           b m n 9 + ' 8 A J n m w.o.' ~.,X,X,X,X,X,X,X,X,X,X,X,X,X,X,X,X,X,X,X,X,X",
",X,X,X,X,X,X,X,X,X,X,X,X,X,X,X,X,X,X&XU...- b . s   r b m 0 ] ( &.A m b z z b 2 / v.,X,X,X,X,X,X,X,X,X,X,X,X,X,X,X,X,X,X,X,X,X,X",
",X,X,X,X,X,X,X,X,X,X,X,X,X,X,X,X,X,X,X~.7.) x p . s n V #.( ] 7 n b l z l z z + ..E.,X,X,X,X,X,X,X,X,X,X,X,X,X,X,X,X,X,X,X,X,X,X",
",X,X,X,X,X,X,X,X,X,X,X,X,X,X,X,X,X,X,X&Xx.( 7 m n 0 #.' ` 6 h s r y y l l u k } 9.,X,X,X,X,X,X,X,X,X,X,X,X,X,X,X,X,X,X,X,X,X,X,X",
",X,X,X,X,X,X,X,X,X,X,X,X,X,X,X,X,X,X,X,XB.} O.Z #.( $ 4 s .       .   y r r h } J.,X,X,X,X,X,X,X,X,X,X,X,X,X,X,X,X,X,X,X,X,X,X,X",
",X,X,X,X,X,X,X,X,X,X,X,X,X,X,X,X,X,X,X,XE.1./ / O ; i r .     .     r u r . =  .U.,X,X,X,X,X,X,X,X,X,X,X,X,X,X,X,X,X,X,X,X,X,X,X",
",X,X,X,X,X,X,X,X,X,X,X,X,X,X,X,X,X,X,X,X,Xm./ ( q.m .           . . r r r u % 2.).,X,X,X,X,X,X,X,X,X,X,X,X,X,X,X,X,X,X,X,X,X,X,X",
",X,X,X,X,X,X,X,X,X,X,X,X,X,X,X,X,X,X,X,X,X~.,.` Y z           . . . . . r j ` z.,X,X|.|.,X,X,X,X,X,X,X,X,X,X,X,X,X,X,X,X,X,X,X,X",
",X,X,X,X,X,X,X,X,X,X,X,X,X,X,X,X,X,X,X,X,X,XB.| Y x .   . r r r r r r r y 3 ' L.,X,X,X,X,X,X,X,X,X,X,X,X,X,X,X,X,X,X,X,X,X,X,X,X",
",X,X,X,X,X,X,X,X,X,X,X,X,X,X,X,X,X,X,X,X,X,X|.2.;.D l i y u y u u t u h 3 @.2.~.,X,X,X,X,X,X,X,X,X,X,X,X,X,X,X,X,X,X,X,X,X,X,X,X",
",X,X,X,X,X,X,X,X,X,X,X,X,X,X,X,X,X,X,X,X,X,X,XM.2.t.9 < j < 1 - # # # $ ` ..I.,X,X&X,X,X,X,X,X,X,X,X,X,X,X,X,X,X,X,X,X,X,X,X,X,X",
",X,X,X,X,X,X,X,X,X,X,X,X,X,X,X,X,X,X,X,X,X,X,X|.R.B.v.z.9.2.2.7.8.9.9.7.7.m.,X,X&X&X,X,X,X,X,X,X,X,X,X,X,X,X,X,X,X,X,X,X,X,X,X,X",
",X,X,X,X,X,X,X,X,X,X,X,X,X,X,X,X,X,X,X,X,X,X,X,X,X,X,X,X,X|.|.,X,X,X,X|.~.|.,X,X,X,X&X,X,X,X,X,X,X,X,X,X,X,X,X,X,X,X,X,X,X,X,X,X",
",X,X,X,X,X,X,X,X,X,X,X,X,X,X,X,X,X,X,X,X,X,X,X,X,X,X,X,X,X,X,X,X,X,X,X,X,X,X,X,X,X,X,X,X,X,X,X,X,X,X,X,X,X,X,X,X,X,X,X,X,X,X,X,X",
",X,X,X,X,X,X,X,X,X,X,X,X,X,X,X,X,X,X,X,X,X,X,X,X,X,X,X,X,X,X,X,X,X,X,X,X,X,X,X,X,X,X,X,X,X,X,X,X,X,X,X,X,X,X,X,X,X,X,X,X,X,X,X,X",
",X,X,X,X,X,X,X,X,X,X,X,X,X,X,X,X,X,X,X,X,X,X,X,X,X,X,X,X,X,X,X,X,X,X,X,X,X,X,X,X,X,X,X,X,X,X,X,X,X,X,X,X,X,X,X,X,X,X,X,X,X,X,X,X",
",X,X,X,X,X,X,X,X,X,X,X,X,X,X,X,X,X,X,X,X,X,X,X,X,X,X,X,X,X,X,X,X,X,X,X,X,X,X,X,X,X,X,X,X,X,X,X,X,X,X,X,X,X,X,X,X,X,X,X,X,X,X,X,X",
",X,X,X,X,X,X,X,X,X,X,X,X,X,X,X,X,X,X,X,X,X,X,X,X,X,X,X,X,X,X,X,X,X,X,X,X,X,X,X,X,X,X,X,X,X,X,X,X,X,X,X,X,X,X,X,X,X,X,X,X,X,X,X,X",
",X,X,X,X,X,X,X,X,X,X,X,X,X,X,X,X,X,X,X,X,X,X,X,X,X,X,X,X,X,X,X,X,X,X,X,X,X,X,X,X,X,X,X,X,X,X,X,X,X,X,X,X,X,X,X,X,X,X,X,X,X,X,X,X",
",X,X,X,X,X,X,X,X,X,X,X,X,X,X,X,X,X,X,X,X,X,X,X,X,X,X,X,X,X,X,X,X,X,X,X,X,X,X,X,X,X,X,X,X,X,X,X,X,X,X,X,X,X,X,X,X,X,X,X,X,X,X,X,X",
",X,X,X,X,X,X,X,X,X,X,X,X,X,X,X,X,X,X,X,X,X,X,X,X,X,X,X,X,X,X,X,X,X,X,X,X,X,X,X,X,X,X,X,X,X,X,X,X,X,X,X,X,X,X,X,X,X,X,X,X,X,X,X,X",
",X,X,X,X,X,X,X,X,X,X,X,X,X,X,X,X,X,X,X,X,X,X,X,X,X,X,X,X,X,X,X,X,X,X,X,X,X,X,X,X,X,X,X,X,X,X,X,X,X,X,X,X,X,X,X,X,X,X,X,X,X,X,X,X"
};
