/* XPM */
static char *_3d68034da7345b1b3ac6052930df538kovPclCtErWLYKiK[] = {
/* columns rows colors chars-per-pixel */
"64 64 103 2 ",
"   c red",
".  c #FF0500",
"X  c #FF0F00",
"o  c #FF1000",
"O  c #FF1600",
"+  c #FF1A00",
"@  c #FF2900",
"#  c #FF2E00",
"$  c #FF3900",
"%  c #FF3F00",
"&  c #FF4100",
"*  c #FF4700",
"=  c #FF4A00",
"-  c #FF5400",
";  c #FF5800",
":  c #FF5E00",
">  c #FF6100",
",  c #FF6600",
"<  c #FF6A00",
"1  c #FF6D00",
"2  c #FF7200",
"3  c #FF7400",
"4  c #FF7B00",
"5  c #FF7F00",
"6  c #FF8300",
"7  c #FF8700",
"8  c #FF8B00",
"9  c DarkOrange",
"0  c #FF9300",
"q  c #FF9400",
"w  c #FF9D00",
"e  c #FFA200",
"r  c #FFAB00",
"t  c #FFAE00",
"y  c #FFB500",
"u  c #FFBB00",
"i  c #FFBE00",
"p  c #FFC100",
"a  c #FFC700",
"s  c #FFCA00",
"d  c #FFCF00",
"f  c #FFD200",
"g  c gold",
"h  c #FFD707",
"j  c #FFD800",
"k  c #FFD804",
"l  c #FFD709",
"z  c #FFD809",
"x  c #FED80D",
"c  c #FFD910",
"v  c #FDD914",
"b  c #FFDA18",
"n  c #FFDA1E",
"m  c #FFDB21",
"M  c #FFDB28",
"N  c #FFDD2B",
"B  c #FFDE32",
"V  c #FFDE36",
"C  c #FFDF3B",
"Z  c #FFE042",
"A  c #FFE145",
"S  c #FFE24B",
"D  c #FFE353",
"F  c #FFE354",
"G  c #FFE456",
"H  c #FFE55C",
"J  c #FFE562",
"K  c #FFE769",
"L  c #FFE76D",
"P  c #FFE871",
"I  c #FFE979",
"U  c #FFE97C",
"Y  c #FFEA81",
"T  c #FFEB88",
"R  c #FEEC8B",
"E  c #FFED91",
"W  c #FFED96",
"Q  c #FFEE9D",
"!  c #FFEFA0",
"~  c #FFEFA4",
"^  c #FFF0A7",
"/  c #FFF0A9",
"(  c #FFF1AD",
")  c #FFF2B1",
"_  c #FFF2B5",
"`  c #FFF4BF",
"'  c #FFF4C1",
"]  c #FFF4C5",
"[  c #FFF5C8",
"{  c #FFF6CD",
"}  c #FFF7D3",
"|  c #FFF7D5",
" . c cornsilk",
".. c #FFF9E0",
"X. c #FFFAE5",
"o. c #FFFAE9",
"O. c #FFFBEC",
"+. c #FFFBF0",
"@. c #FFFCF2",
"#. c #FFFBF4",
"$. c #FFFCF6",
"%. c #FFFDF9",
"&. c white",
/* pixels */
"&.&.&.&.&.&.&.&.&.&.&.&.&.&.&.&.&.&.&.&.&.&.&.&.&...j j / &.&.&.&.&.&.&.&.&.&.&.&.&.&.&.&.&.&.&.&.&.&.&.&.&.&.&.&.&.&.&.&.&.&.&.",
"&.&.&.&.&.&.&.&.&.&.&.&.&.&.&.&.&.&.&.&.&.&.&.&.&.g j j K &.&.&.&.&.&.&.&.o...$.&.&.&.&.&.&.&.&.&.&.&.&.&.&.&.&.&.&.&.&.&.&.&.&.",
"&.&.&.&.&.&.&.&.&.&.&.&.&.&.&.&.&.&.&.&.&.&.&.&.+.j j j K &.&.&.&.&.&.&.N g j j h / &.&.&.&.&.&.&.&.&.&.&.&.&.&.&.&.&.&.&.&.&.&.",
"&.&.&.&.&.&.&.&.&.&.&.&.&.&.&.&.&.&.&.&.&.&.&.&.H j j j K &.&.&.&.&.&.&.g j j g j j b &.&.&.&.&.&.&.&.&.&.&.&.&.&.&.&.&.&.&.&.&.",
"&.&.&.&.&.&.&.&.&.&.&.&.&.&.&.&.&.&.&.&.&.&.&.&.l j j j K &.&.&.&.&.&.&.g j j g j j g ..&.&.&.&.&.&.&.&.&.&.&.&.&.&.&.&.&.&.&.&.",
"&.&.&.&.&.&.&.&.&.&.&.&.&.&.&.&.&.&.&.&.&.&.&.&.g j j j K &.&.&.&.&.&.&.g j j j j j j D &.&.&.&.&.&.&.&.&.&.&.&.&.&.&.&.&.&.&.&.",
"&.&.&.&.&.&.&.&.&.&.&.&.&.&.&.&.&.&.&.&.&.&.&...g g g j K &.&.&.&.&.&.&.g j j j j g j h &.&.&.&.&.&.&.&.&.&.&.&.&.&.&.&.&.&.&.&.",
"&.&.&.&.&.&.&.&.&.&.&.&.&.&.&.&.&.&.&.&.&.&.&.' j g g j K &.&.&.&.&.&.&.g j j j j g j g &.&.&.&.&.&.&.&.&.&.&.&.&.&.&.&.&.&.&.&.",
"&.&.&.&.&.&.&.&.&.&.&.&.&.&.&.&.&.&.&.&.&.&.&.T j g g j K &.&.&.&.&.&.&.j j g j j g j g &.&.&.&.&.&.&.&.&.&.&.&.&.&.&.&.&.&.&.&.",
"&.&.&.&.&.&.&.&.&.&.&.&.&.&.&.&.&.&.&.&.&.&.&.n j g g j K &.&.&.&.&.&.} j g g j j j j j &.&.&.&.&.&.&.&.&.&.&.&.&.&.W I +.&.&.&.",
"&.&.&.&.&.&.&.&.&.&.&.&.&.&.&.&.&.&.&.&.&.&.&.g j g j j V &.&.&.&.&.&.M j g g j j j j j &.&.&.&.&.&.&.&.&.&.&.&.#.g j g g &.&.&.",
"&.&.&.&.&.&.&.&.&.&.&.&.&.&.&.&.&.&.&.&.&.&.&.j j j j j j | &.&.&.&.&.g j j j j j j j j &.&.&.&.&.&.&.&.&.&.&.&.g j j j g &.&.&.",
"&.&.&.&.&.&.&.&.&.&.&.&.&.&.&.&.&.&.&.&.&.&.&.j j g g j j g o.&.&.&.$.g j g j j j j j j &.&.&.&.&.&.&.&.&.&.&.z j j g j j O.&.&.",
"&.&.&.&.&.&.&.&.&.&.&.&.&.&.&.&.&.&.&.&.&.&.E j j g j j j j g &.&.&.g j g g j j j j j j &.&.&.&.&.&.&.&.&.&.V g j j g j j o.&.&.",
"&.&.&.&.&.&.&.&.&.&.&.&.&.&.&.&.&.&.&.&.&.&.B j g j j j j g j g &.Y j j g j j j j j j j &.&.&.&.&.&.&.&.&.G j j j j j j j O.&.&.",
"&.&.&.&.&.&.&.&.&.&.&.&.&.&.&.&.&.&.&.&.&.&.g j g j j j j g j j g g j j j j j j j j j j &.&.&.&.&.&.&.&.! g j j j j j j j O.&.&.",
"&.&.&.&.&.&.&.&.&.&.&.&.&.P g ] &.&.&.&.&.&.g j g j j j j j j j j j j j j j j j j g j j { &.&.&.&.&.&.%.g j j j j j j j j O.&.&.",
"&.&.&.&.&.&.&.&.&.&.&.&...g j g &.&.&.&.&.&.g j j j j j j j j j g g j j j j j j j j j j g &.&.&.&.&.&.g j g j j j j j j j O.&.&.",
"&.&.&.&.&.&.&.&.&.&.&.&.g j j g &.&.&.&.&.&.j j j j j j j j j j g g j j j j j j j j j j j | &.&.&.&.O.g j g j j j j j j j O.&.&.",
"&.&.&.&.&.&.&.&.&.&.&.o.g j j g &.&.&.&.&.~ j g g j j j j j j j j j j j j j j j j j g g j g @.&.&.&.n j j g j j j j j j j o.&.&.",
"&.&.&.&.&.&.&.&.&.&.&.Y j j j g &.&.&.&.&.g j g g j j j j j j j j j j j j j j j j j j j j j g %.&.X.g j j j j j j j j j j O.&.&.",
"&.&.&.&.&.&.&.&.&.&.&.Z j j j g &.&.&.&.&.g j g j j j j j j j j j j j j j j j j j j j j j j j g &.F j g g j j j j j g j g %.&.&.",
"&.&.&.&.&.&.&.&.&.&.&.g j j j j ) &.&.&.o.j j g j j j j j j j j j j j j j j j j j j j j j j j j g g j g g j j j j j g j g &.&.&.",
"&.&.&.&.&.&.&.&.&.&.%.g j j j j h &.&.&.( j g j j j j j j j j j j j j j j j j j j j j j j j j j j j j j j j j j j g g j J &.&.&.",
"&.&.&.&.&.&.&.&.&.&.Q j g j j j g I &.&.S j g j j j j j j j j j j j j j j j j j j j j j j j j g g g g j j j j j j g g j } &.&.&.",
"&.&.&.&.&.&.&.&.&.&.g j g j j g j A &.%.g j g j j j j j j j j j j j j j j j j j j j j j j j j j j g j j j j j j j g j j %.&.&.&.",
"&.&.&.&.&.&.&.&.&.` g j g j j j j g &.F j g j j j j j j j j j j j j j j j j j j j j j j j j j j j j j j j j j j j g j j &.&.&.&.",
"&.&.&.&.&.&.&.&.&.b j j g j j j j g C g j g j j j j j j j j j j j j j j j j j j j j j j j j j j j j j j j j j j j j j g &.&.&.&.",
"&.&.&.&.&.&.&.&.&.g j j j j j j j j j j j j g g 7 9 g g j j j j j j j j j j j j j j j j j j j j j j j j j j j j j j j g &.&.&.&.",
"&.&.&.&.&.&.&.&.&.g j g j j j j j j g g j j g 1 < < < g j j j j j j j j j j j j j j j j j j j j j j j j j j j j j j j g &.&.&.&.",
"&.&.&.&.&.&.&.&._ j g g j j j j j j g g j j g < < < < < g j j j j j j j j j j g g g j j j j j j j j j j j j j j j j j g %.&.&.&.",
"&.&.&.&.&.&.&.&.g j j j j j j j j j j j j j g < < < < < 3 g g j j j j j j j g y , p g j j j j j j j j j j j j j j g j g &.&.&.&.",
"&.&.&.&.&.&.&.%.g j j j j j j j j j j j j j g < < < 1 < < 3 g j j j j j j g f < < < g j j j j j j j j j j j j j j g j z &.&.&.&.",
"&.&.&.&.&.&.&.Q j g j j j j j j j j j j j j g < < < < 1 < < < g g j j j j g < < < < g j j j j j j j j j j j j j j g j x &.&.&.&.",
"&.&.&.&.&.&.&.g j g j j j j j j j j j j j j g , < < < < 1 < < < g g j j g < < < < < g j j j j j j j j j j j j j g j j } &.&.&.&.",
"&.&.&.&.&.&.^ j j j j j j j j j j j j j j j g < < 1 < < < 1 < < < g g g a < < < < < g j j j j j j j j j j j j j g j j &.&.&.&.&.",
"&.&.&.&.&.&.h j j j j j j j j j j j j j j g i < < < < < < < 2 < < < j g < < < < < < g j j j j j j j j j j j j j g j g &.&.&.&.&.",
"&.&.&.&.&.&.g j j j j j j j j j j j j j j g 3 < < < < < < < < 1 < < < t < < < < < < g j j j j j j j j j j j j j g j g &.&.&.&.&.",
"&.&.&.&.&.&.g j j j j j j j j j j j j j j g , < 1 < < < < < < < 2 < < < < < < 1 < < 5 g g j j j j j j j j j j j j j g &.&.&.&.&.",
"&.&.&.&.&.&.g j j j j j j j j j j j j j j g < < 1 < < < < < < < < < < < < < < < < < < < r g g g g g g g j j j j j j b &.&.&.&.&.",
"&.&.&.&.&.&.g j j j j j j g g g g g g g g j < < < < < & o , < < < < < 1 1 < < < < < < < < < < 2 2 < < u g j j j g j N &.&.&.&.&.",
"&.&.&.&.&.&.g j j j j j j g < < < < < < q j < < < < <       < < < < < < < < < < < < 1 < < < < < < < < 0 g j j g g j L &.&.&.&.&.",
"&.&.&.&.&.&.g j j j j j j g < < < < < < < < < < < < <       ; < < < < < < < < < < < < < < 2 < < < < < j j j j g g j ' &.&.&.&.&.",
"&.&.&.&.&.&.g j j j j j j g < < < < < < < < < < < < >         < < < < < < < < < < < < < < < < < < < 5 g j j j g g j [ &.&.&.&.&.",
"&.&.&.&.&.&.g j j j j j j g < < 1 < < < 1 1 1 < < < %           # < < < < < < < < < < < < < < 2 < < a j j j j k j g %.&.&.&.&.&.",
"&.&.&.&.&.&.g j j j j j j g < < < < < < < < < < < < .               = < < < < < < < < < < < < < < 1 g j j j j j j g &.&.&.&.&.&.",
"&.&.&.&.&.&.g j j j j j j g w < < < < < < < < < , +     .                 . .       - < < < < < < r g j j j j g j m &.&.&.&.&.&.",
"&.&.&.&.&.&.g j j j j j j j d < < 1 < < < *                                           X < < < < < g j j j j g g j F &.&.&.&.&.&.",
"&.&.&.&.&.&.g j j j j j j j j < < < < < <                                       .       * < < < 6 g j j j j g j j } &.&.&.&.&.&.",
"&.&.&.&.&.&.g j j j j j j j g < < < 1 < <                                                 1 < < g g j j j j g j g &.&.&.&.&.&.&.",
"&.&.&.&.&.&.g j g g j j j j g a < < < < < .                                     .         < < < g j j j j g g j g &.&.&.&.&.&.&.",
"&.&.&.&.&.&.x j g g j j j j j g q < < < < <                                             @ < < f g j j j j g g j ! &.&.&.&.&.&.&.",
"&.&.&.&.&.&.&.g g g j j j j j j g < < < < < $     .                     .           : < < < 3 g j j j j j g j g %.&.&.&.&.&.&.&.",
"&.&.&.&.&.&.&.g g g j j j j j j g 8 < < < < < .                   .               < < < < < g g j j j j g g j g &.&.&.&.&.&.&.&.",
"&.&.&.&.&.&.&.g g g j j j j j j g d < < < < < ,                             O % < < < < < t g j j j j j g g j B &.&.&.&.&.&.&.&.",
"&.&.&.&.&.&.&.g j j j j j j j j j g 3 < < < < < >                     # , < < < < < < < 1 g j j j j j g g g g &.&.&.&.&.&.&.&.&.",
"&.&.&.&.&.&.&.&.g j j j j j j j j g g 6 < < 1 < < < O       ; < < < < < 1 < < < < < < 1 g j j j j j j g g g &.&.&.&.&.&.&.&.&.&.",
"&.&.&.&.&.&.&.&.v j j j j j j j j j g g 1 < < < < < 2 < < < < < 2 2 < < < < < < < < e g g j j j j j j j g &.&.&.&.&.&.&.&.&.&.&.",
"&.&.&.&.&.&.&.&.&.g j j j j j j j j j g g < < < < < < < < < < < < < < < < < 7 s g g g j j j j j g g j j &.&.&.&.&.&.&.&.&.&.&.&.",
"&.&.&.&.&.&.&.&.&.&.c g j j g j j j j j g g s f 4 < < < < < < < < < < 8 s g g j j j j j j g g j g g j g &.&.&.&.&.&.&.&.&.&.&.&.",
"&.&.&.&.&.&.&.&.&.&.&.A g j j j j j j j j j j g g g i 5 4 4 4 6 f g g g j j j j j g j g j g j j j g g R &.&.&.&.&.&.&.&.&.&.&.&.",
"&.&.&.&.&.&.&.&.&.&.&.&.h j j j g j j j j j j j j j j j j j j j j j j j j j j k j g j j g j j g z &.&.&.&.&.&.&.&.&.&.&.&.&.&.&.",
"&.&.&.&.&.&.&.&.&.&.&.&.h j j j g j j j j j j j j j j j j j j g j j j g j j j j j j g g Z ! &.&.&.&.&.&.&.&.&.&.&.&.&.&.&.&.&.&.",
"&.&.&.&.&.&.&.&.&.&.&.&.$.g g j j j j g g g j j j j j j j j j g j j j j j j j g k U  .&.&.&.&.&.&.&.&.&.&.&.&.&.&.&.&.&.&.&.&.&."
};
