/* XPM */
static char *_41592f5c1764fa7c4290967471ac261spGi0uFQf1nQPyOF[] = {
/* columns rows colors chars-per-pixel */
"64 64 221 2 ",
"   c #0A090A",
".  c #060712",
"X  c #0B1015",
"o  c #141315",
"O  c gray10",
"+  c #050924",
"@  c #040B2B",
"#  c #090A2A",
"$  c #161A24",
"%  c #050A31",
"&  c #020C3D",
"*  c #090F3B",
"=  c #081135",
"-  c #07113D",
";  c #09123E",
":  c gray14",
">  c #2C2C2C",
",  c gray20",
"<  c #353638",
"1  c gray24",
"2  c #050E42",
"3  c #0A0E42",
"4  c #061141",
"5  c #091242",
"6  c #091249",
"7  c #171E42",
"8  c #0B1854",
"9  c #1A244E",
"0  c #1B2A54",
"q  c #343E56",
"w  c #0A257E",
"e  c #22366A",
"r  c #444444",
"t  c #4E4E4E",
"y  c #4E4E50",
"u  c #4F5051",
"i  c #535354",
"p  c #5B5B5B",
"a  c #4A607D",
"s  c #636364",
"d  c #6C6C6C",
"f  c #747474",
"g  c #7E7E7E",
"h  c #827E7E",
"j  c #7E817E",
"k  c #82817E",
"l  c #062685",
"z  c #0A2585",
"x  c #042A87",
"c  c #0B2983",
"v  c #05268D",
"b  c #0A248B",
"n  c #052A8D",
"m  c #092C8D",
"M  c #122A8A",
"N  c #0E3286",
"B  c #16358C",
"V  c #032694",
"C  c #092594",
"Z  c #032995",
"A  c #0A2B93",
"S  c #04269A",
"D  c #09269B",
"F  c #052999",
"G  c #0A2C9A",
"H  c #112C95",
"J  c #0A3697",
"K  c #0B339C",
"L  c #123493",
"P  c #193693",
"I  c #1C3D97",
"U  c #13339C",
"Y  c #173898",
"T  c #153C9C",
"R  c #1B3C9B",
"E  c #243A88",
"W  c #2B3C97",
"Q  c #0428A0",
"!  c #0D33A0",
"~  c #0938A1",
"^  c #163AA1",
"/  c #1B3CA2",
"(  c #223DA3",
")  c #0F409B",
"_  c #19439B",
"`  c #1D439D",
"'  c #34498E",
"]  c #27459A",
"[  c #22459E",
"{  c #3A5198",
"}  c #0C41A4",
"|  c #0E40AB",
" . c #1342A4",
".. c #1D43A5",
"X. c #1B46AB",
"o. c #154DAD",
"O. c #1B4CAC",
"+. c #1850AC",
"@. c #1D4BB2",
"#. c #1B56B6",
"$. c #2344A3",
"%. c #2C46A1",
"&. c #2B4CA6",
"*. c #2D4CAB",
"=. c #354CA7",
"-. c #3648A9",
";. c #2755AA",
":. c #3353A4",
">. c #3757AB",
",. c #3A56AC",
"<. c #244BB3",
"1. c #2457B4",
"2. c #235FBB",
"3. c #3454B3",
"4. c #3A57B5",
"5. c #3C5CB4",
"6. c #1D63BE",
"7. c #2866BB",
"8. c #3361B2",
"9. c #316AB6",
"0. c #3C6AB5",
"q. c #3163BC",
"w. c #4B5C8D",
"e. c #4D6395",
"r. c #797C87",
"t. c #7D7E84",
"y. c #637197",
"u. c #797D98",
"i. c #435EB7",
"p. c #485FB7",
"a. c #4367AE",
"s. c #4462B6",
"d. c #4463BB",
"f. c #4C67BA",
"g. c #4568BC",
"h. c #586BB0",
"j. c #4674BE",
"k. c #5172BF",
"l. c #5971BC",
"z. c #6779A8",
"x. c #627ABD",
"c. c #335CC1",
"v. c #2564C5",
"b. c #2E6CC3",
"n. c #2B6CCB",
"m. c #316EC9",
"M. c #2670C6",
"N. c #3875CD",
"B. c #2F7FD9",
"V. c #3875D4",
"C. c #347BD2",
"Z. c #3D7BD4",
"A. c #3D7CDD",
"S. c #496AC2",
"D. c #536DC5",
"F. c #4775C6",
"G. c #5474C2",
"H. c #5B73C6",
"J. c #5875C7",
"K. c #5C7CC6",
"L. c #557ACB",
"P. c #5A7DCC",
"I. c #427DD6",
"U. c #5878D3",
"Y. c #677CCA",
"T. c #637DCC",
"R. c #637AD5",
"E. c #637ED8",
"W. c #827E83",
"Q. c #837E8D",
"!. c #378BB5",
"~. c #52859C",
"^. c #7D8283",
"/. c #75838B",
"(. c #7E828A",
"). c #688496",
"_. c #768596",
"`. c #5088B4",
"'. c #678CA8",
"]. c #7485AA",
"[. c #3D89C6",
"{. c #2E8ADF",
"}. c #3B88DC",
"|. c #3B8AE3",
" X c #5B84CC",
".X c #4787DC",
"XX c #5B88D5",
"oX c #4D91D2",
"OX c #4594DB",
"+X c #6381CE",
"@X c #6B83CE",
"#X c #678ACB",
"$X c #6483D3",
"%X c #6387D6",
"&X c #6C83D4",
"*X c #6899D4",
"=X c #74A4D4",
"-X c #448FE7",
";X c #4795E7",
":X c #6BA9E8",
">X c #78B2E9",
",X c #818181",
"<X c #898688",
"1X c #8B8A8B",
"2X c #898D95",
"3X c gray58",
"4X c #9E9C96",
"5X c gray61",
"6X c #A09D9D",
"7X c #8591A5",
"8X c #9EA2A1",
"9X c #A4A3A4",
"0X c #A6A7AA",
"qX c #ACACAC",
"wX c #AAAFB1",
"eX c #B2B2B2",
"rX c #B1B2B6",
"tX c gray71",
"yX c #B9B7B8",
"uX c #8898C5",
"iX c #A2B1C4",
/* pixels */
"X O O O O O O O O O O O O O O O O O O O O O O O O O O O O O   o O O O O O O O O O O O O O O O O O O O O O O O O O O O O O O O   ",
"O g g g ,X,X,X,X,X,X,X,X,X,X,X,X,X,X,X,X,X,X,X,X,X,X,X,X,X,XO i ,X,X,X,X,X,X3X1X,X,X,X,X,X,X<X,Xg ,X,X,X,X,X,X,X,X^.,Xg ,X,X,XO ",
"O g ,X,X,X,X,X,X,X,X<X3XtX<X,X,X,X,X,X,X,Xg ,X,X,X,X,X,X,X,XO t ,X,X,X,X,X<XeX3X,X,X,X,X,X3XeX<Xg g ,X,X,X,Xg ,X^.k ,X,X,X,X,XO ",
"O g ,X,X,X,X,X,Xg 1X0XtX3X,Xg ,X,X,Xg ,X<Xg ,Xk ,X,X,X,X,X,XO t g ,X,X,X<XeX5X,X,X,X,X,X<XtX3Xg ,Xg ,X,X,X,X,Xg ,Xk k ,X,X,X,XO ",
"O g ,X,X,X,X,X,X5XtX5X<X,Xf g g ,X,X,X3X5X,X,X,X,X,X,X,X,X,XO t g g ,X<XqX9X,Xg ,X,X,X,X0X9X,X,Xg ,X,X,Xg ,X<X3X,X,X,X,X,X,Xg O ",
"O g ,X,X,Xg <X0XeX<X,X,Xg r , f f d <Xg t g ,Xj k ,X,X,X,X,XO t g ,Xf 0XqX<Xg ,X,Xg g 3XeX<X,Xg ,Xg d g g <XeX9X,X,X,X,X,X,X,XO ",
"O g g ,X,X1XeX0X<X,X,X,X,Xg r : > f <Xd g ,X,X,Xk k ,X,X,X,XO t g ,Xs 3X,Xg g d f ,X3XqXd i i i < : , g 3XtX5X,X,X,X,X,X,X,Xg O ",
"O g ,Xg 3XtX3X,Xg ,X,X,X,X,X,Xg 0X0X,X,X,X,X,X,X,X,X,X,X,X,XO t g 5XeX, , p , O > f 9Xt : 1 1 1 i d g 3XyX3X,X,X,X,X,X,X,X,X,XO ",
"O g ,X<XqX3X,X,X,X,X,X,X,Xg 3XyX5X,Xg g ,X,X,X,X,X,X,Xg ,X,XO t g <X<Xg u , t f p k s i g ,X,X,X,X,X3XtX3X,Xg ,X,X,Xg ,X,X,X,XO ",
"O g ,X,Xf d g g ,Xg ,X,Xg <XtX5X,X,X,X,X,X,X,X,X,Xg ,X,X,Xg O t ,X,X,X,X^.g h <XrX4Xt.,X,X,X,X,X,X3XqX3X,X,X,X,X,Xg ,Xg ,Xg ,X> ",
"O ,Xg ,Xs : d g f g ,X,X<XeX5Xg g ,X,X,X,X,X,X,X,X^.g <X,X,XO t ,X,Xg g ^.,X<XeX6Xj W.,X,X,X,X,X3XtXt i g ,X,Xg f g ,X,X9X3X,X> ",
"O ,Xh ,Xj i : : > f ,X3XtX5X,X,X,Xj ,X,X,X,X,X,X,X^.3XeX1Xd o t g ,X,X,X,X1XyX5Xh t.h ,X,X,XW.<XeX5Xs : y s i 1 > g <XqXqX<X,X, ",
"$ r.k t.j ,Xf d g g 5XtX3X,X,X,Xk k ,X,Xf p g g g <X<Xg p :   t g ,X,X<X5XtX5X,XW.t.W.,Xg ,X1XeX8Xg k s < > , t d <XtX9X<X,X,X> ",
"# w.^.t.,X,X,X,X,X0XeX<X,X,Xk k ,X,X,X,Xf : , p <Xg r > > s O t ,X,Xg 5XqX1Xt.^.)./.^.<X3XqXtX5X,X^.^.g j g ,X,X3XyX3X,X,X,X,X> ",
"% e _.j W.,X,X<X0XqX<X,Xk ,X^.(.r.(.,X,X<X1X5X9X<X,X^.g g ,XO i ,X,X,X<X,X,X(./.`.'.8XtXqX3X<Xh ,X(.r.t.,X,X,X9XeX1X,X^.,X,X<X> ",
"% c ' _.W.W.1XrXiXy.w.u.(._.y.E c e.7XqXyX0X3XW.t.^.^.W.,X,XO i W.h k h k j ,X).oXiX9X3X,X,X^.k r.`.'.(.<X5XrX0X<X^./.t.t.W./.O ",
"% c b E e.y.uX=XI m n P B I C D / +Xx.].2XQ.Q.k g ,X^.,X,X,XO u j ^.(.u.7Xa ].`.[.].e.w._.^.^.k _.!.'.0XyXwX].w._.'.~.(.j u.' + ",
"% z V V m x 7.M.Z S C Z V S V Z n m C D =.h.y.y.z.' { { { { $ q ].e.{ M M l z q.b.m v C M y._.2Xz.OX#XuXz.{ n V z b.oXz.w.W b @ ",
"% z C v b b Z.o.Z Z V Z / V V V v v v v v b z z b v v x x I 7 8 w b b C C C v <.R C b v v b B E ;.v.m w c Z Z v v N.1.b b b b + ",
"+ = ; ; ; * e 5 - - - 9 9 5 2 5 2 - * ; ; 5 5 3 3 3 3 ; 4 7 X + - * - = = ; - ; ; = ; 6 3 6 4 ; 9 0 4 & ; - - - ; e 0 - ; - =   ",
"% 4 6 6 & 5 5 ; 5 2 4 5 5 ; 5 5 4 - - 5 5 5 5 4 5 & 5 5 5 ; # # = 4 6 6 4 * 5 ; 5 ; - 2 2 2 - ; ; - 4 4 6 ; ; - ; - ; ; ; ; - . ",
"& V V V Z V Z V V S S S V V F S S n V S S S S F V S S S S V Z Z V Z Z V V V V Z V S S S S V S S S Z Z S S S S S Z V S V S S n + ",
"& V V V S V V A V S S V V V S U R V V S S S S V V V V V S V Z Z V V V V V F V V Z V S S V V S V $.A V V S S S S V V Z V S V v + ",
"& Z V V S Z $.U.K V S S V V Y P.3.S V V S S S S V n V V V V Z Z V V Z Z Z V m d.c.Z V S V V Z &.%XU V Z V S S S S V m V V V V + ",
"& V V V Z ] @XF.Z V V S V P *Xj.G S V O.G S S F m F.T V Z V Z Z V V V V Z m a.+X3.Z V S S V :.>X$.S F A O.S S S Z ` S.Z Z V V + ",
"& S S m 4.&X8..XK S V V $.+XoXO.C C A Z.~ S F A S.:X .F Z V Z Z V V D Z P D.+X8.N.Z F V C s.%X;Xv C V T C.S S Z R XXoXZ Z Z V + ",
"2 S ^ G.K.( } V.V V A 3.$X;..XK V C K ;XK V b 5.XX;X .Z F V Z Z Z V S *.#Xp.! n.@.V V U D.G.7.m.Z V V b.m.V V L R..X}.Z Z Z v + ",
"& V / >.A V G Z C H S.E.T o..XZ Z v #.C.Z A ,.$X` {.G Z Z V Z Z V V V 3.[ Z A A Z C ( R.g.J M.q.Z V A C.+.Z L J.f.7.6.Z Z Z v + ",
"& V V V V V V D U G.H.U U }.2.C Z V v.o.A ,.T.I 7.6.Z Z Z V Z Z Z V V V V V V S S $.@X4.C <.;XK C Z v |.A L J.f.m }.} Z F Z V + ",
"& V V V V Z v Y T.f.A V ) C.A C V F A.O.s.P.U C .X .Z Z F Z Z Z Z V V V V V Z n &.@X%.C Z 7.+.A V F @.C.R T.i.D $.Z.A Z F Z v + ",
"& V V V v v _ Y.5.G S b q.@.C V S Z F.G.l.U S v +.C Z Z Z Z Z Z Z V V V V v v 5.Y.$.S V z I.U v F S  .F.@X,.G C J  .C Z F Z v + ",
"& S S S V `  X3.A V V V A V Z Z S I Y.p.A Z S S F V V Z V Z Z Z Z V S S V n 5.P./ V V V V G F Z V A ,.@X] Z Z S S S V Z V V l + ",
"& V S A :.%X&.Z V Z V V V V Z C *.&X3.Z Z V V S S S S V I Z Z Z Z V S V L k.P.L V V F V V V n Z H S.T.R Z Z V V S S S S A ,.:.+ ",
"& V G L.L...V V Z v.1.V V v m d.T.$.S D S V V V S S C %.&XZ Z Z Z v V $.XXg.G V C K A.G V V v T T.f.K S D V V V V S S A s.T.B + ",
"& V Z T Z V S C K |.K S D Y J.L.N V V S S Z V V S V -.&X*.Z Z Z Z Z V G U V S V C 2.n.V D D -.$X>.x Z S S F V V S S A f.J.Y b + ",
"& Z V V V V V V #.C.A Z ( &Xa.1.D V V Z 2.@.V S n j.$X[ b Z Z Z Z Z Z S V V V V G B.O.Z A i.Y.9.^ V V V A Z.Z S S ..K.D.H C V + ",
"& Z V S V V V V A.K L s.$X*.N.m.A S V Z ;XO.C A a.>XI Z C Z Z Z Z Z Z V S V V V <.v.A [ G.P./ -XX.C V V O.-XZ D I *X XA V V V + ",
"& Z Z V V V V V K Z S.g.R | |.~ V V Z X.;Xn P k.>Xq.V V V V Z Z Z Z Z V V V V V G A K P.>.K n.n.Z V V Z V.n.l %.*X:XK V V V v + ",
"& Z Z Z V V V V F V G V x b.#.F S S V X.O.R E.s.OXR V V V V Z Z Z Z Z Z V V V V V Z V D v L }.K F S S V c.K 4.E.0.Z.C V V V l # ",
"& Z Z Z V V V V V V V v T ;X~ V S S V A v C U A 1.n C Z Z Z Z Z Z Z Z Z Z Z V V V V V v v 7.C.F V S V D Z v H H ..) V V V V l # ",
"& v b Z Z Z Z Z Z Z Z c 8.;.Z Z Z Z Z Z Z Z Z Z Z Z Z Z Z Z Z Z Z Z Z Z Z Z Z Z Z Z Z Z c F.Z Z Z Z Z Z Z Z Z Z M c l z Z Z Z + ",
"+ Z Z Z Z Z Z Z Z Z Z Z Z Z Z Z Z Z Z Z Z Z Z Z Z Z Z Z Z Z Z Z Z Z Z Z Z Z Z Z Z Z Z Z Z Z Z Z Z Z Z Z Z Z Z Z Z Z Z Z Z Z Z . ",
"% Z Z Z Z Z Z Z Z Z Z Z Z Z Z Z Z Z Z Z Z Z Z Z Z Z Z Z Z Z Z Z Z Z Z Z Z Z Z Z Z Z Z Z Z Z Z Z Z Z Z Z Z Z Z Z Z Z Z Z Z Z Z . ",
"& V V V Z V Z V V Q S S V V S Z Z Z Z Z S S S F V S V S S V Z Z V Z Z V V Z V Z V S S S S V Z Z Z Z Z Z Z Z Z Z Z Z S V S S n + ",
"& V V V S V V A V S S V V V S U R V V S S S S V V V V V S V Z Z V V V V V F V V Z V S S V V S V $.A V V S S S S V V F V V V v + ",
"& Z Z Z S Z $.U.K F F F V V Y P.3.S V V S S S S V n v V V V Z Z V V Z Z Z V m d.c.Z V S V V Z &.%XU V V V S S S S V m V V V v + ",
"& V V V Z ] @XF.Z V V S V P *Xj.G S V O.G S S F m F.T V Z V Z Z V V V V Z m a.+X3.Z V S S V :.>X$.S F A O.S S S Z ` S.Z Z V V + ",
"& S S m 4.&X8..XK F V V $.+XoXO.C C A Z.~ S F A S.:X .Z Z V Z Z V V D Z P D.+X8.N.Z F V C s.%X;Xv C V T C.S S Z R XXoXZ Z Z v + ",
"2 S ^ G.K.( } V.V V A 3.$X;..XK V C K ;XK V b 5.XX;X .Z Z V Z Z Z V S *.#Xp.! n.@.V V U D.G.7.m.Z V V b.m.V V L R..X}.Z Z Z V + ",
"& V / >.A V G Z C H S.E.T o..XZ Z v #.C.Z A ,.$X` {.G Z Z V Z Z V V V 3.[ Z A A V C ( R.g.J M.q.Z V A C.+.Z L J.f.7.6.Z Z Z V + ",
"& V V V V V V D U G.H.U U }.2.C Z V v.o.A ,.T.I 7.6.Z Z Z V Z Z Z V V V V V V S S $.@X4.C <.;XK C Z v |.A L J.f.m }.} Z Z Z V + ",
"& V V V V Z v Y T.f.C V T C.A C V F A.O.s.P.U C .X .Z Z Z V Z Z Z V V V V V Z n &.@X%.C Z 7.+.A V F @.C.R T.i.D $.Z.A Z Z F v + ",
"& V V V v v _ Y.5.G S b q.@.C V S Z F.G.l.U S v +.C Z Z Z Z Z Z Z V V V V v v 5.Y.$.S V z I.U v F S  .F.@X,.D C J  .C Z F Z v + ",
"& S S S V `  X3.A V V V A V Z Z S I Y.p.A Z S S F V V Z V V Z Z V V S S S n 5.P./ V V V V G F Z V A ,.@X] Z Z S S S V Z V V l + ",
"& V S A :.%X&.Z V Z V V V Z Z C *.&X3.Z Z V V S S S S V I f.Z Z V V S V L k.P.L V V F V V V n Z H S.T.R Z Z V V S S S S A ,.:.+ ",
"& V G L.L...V V Z v.1.V V v m d.T.$.S D S V V V S S C %.&X=.Z Z Z v V $.XXg.G V C K A.G V V v T T.f.K S D V V V V S S A s.Y.B + ",
"& V Z ^ Z V S C K |.K S D Y J.L.N V V S S Z V V S V -.&X*.C Z Z Z Z V G U V S V C 2.n.V D D -.$X>.x Z S S F V v S S A f.J.Y b + ",
"& Z V S V V V V #.C.A Z ( &Xa.1.D V Z Z 2.@.V S n j.$X[ b C Z Z Z Z Z S V V V V G B.O.Z A i.Y.9.^ V V V A Z.Z S S ..K.D.H C V + ",
"& Z V S V V V V A.K L s.$X*.N.m.A S V Z ;XO.C A a.>XI Z C V Z Z Z Z Z V S V V V <.v.A [ G.P./ -XX.C V V O.-XZ D I *X XA V V V + ",
"& Z Z V V V V V K Z S.g.R | |.~ V V Z X.;Xn P k.>Xq.V V V V Z Z Z Z Z V V V V V G A K P.>.K n.n.Z V V Z V.n.l %.*X:XK V V V v + ",
"& Z Z Z V V V V F V G V x b.#.F S S V X.O.R E.s.OXR V V V V Z Z Z Z Z Z V V V V V Z V D v L }.K F S S V c.K 4.E.0.Z.C V V V l # ",
"& Z Z Z V V V V V V V v T ;X~ V S S V A v C U A 1.n V V V V Z Z Z Z Z Z Z V V V V V V v v 7.C.F V S V D Z v H H ..) V V V V l # ",
"& v b z z z z z b l z z 8.;.z l b b z z z z z b c z b z z z Z Z v v v b z z z z l l l z c F.T l l b b z l z z z M c l z z z w + ",
"+ % % % % % % % % % % % % % % % % % % % % % % % % % % % % % % % % % % % % % % % % % % @ @ @ @ % % % % % % % % % % % % % % % # . "
};
