/* XPM */
static char *_97b0c8608b84da392d5dd1ffc827d877NQXBneJFJEbQmlT[] = {
/* columns rows colors chars-per-pixel */
"64 64 176 2 ",
"   c #0A090A",
".  c #060712",
"X  c #0B1015",
"o  c #141315",
"O  c gray10",
"+  c #050924",
"@  c #040B2B",
"#  c #090A2A",
"$  c #161A24",
"%  c #050A31",
"&  c #020C3D",
"*  c #090F3B",
"=  c #081135",
"-  c #07113D",
";  c #09123E",
":  c #050E42",
">  c #061141",
",  c #091242",
"<  c #091249",
"1  c #1A244E",
"2  c #22366A",
"3  c #AAAE23",
"4  c #EDE70D",
"5  c #F3ED03",
"6  c #FEEE03",
"7  c #FFEE0B",
"8  c #F6F100",
"9  c #FEF202",
"0  c #FFF904",
"q  c #F5F40C",
"w  c #FDF10B",
"e  c #FEEE12",
"r  c #F3EE1A",
"t  c #F8EE1B",
"y  c #F5F010",
"u  c #F5F41E",
"i  c #FEF31C",
"p  c #EFED26",
"a  c #F4ED24",
"s  c #FEEF20",
"d  c #F1ED2C",
"f  c #FCEA2E",
"g  c #F9F325",
"h  c #FFF22D",
"j  c #E2E536",
"k  c #EEE73F",
"l  c #EEED3A",
"z  c #F3E733",
"x  c #F7ED36",
"c  c #FBF332",
"v  c #F6F33A",
"b  c #FCF339",
"n  c #A5AE53",
"m  c #FCF34C",
"M  c #F0E150",
"N  c #FFEE58",
"B  c #EDF459",
"V  c #FBF251",
"C  c #F4F458",
"Z  c #FBF758",
"A  c #DCE46B",
"S  c #DEED70",
"D  c #DBEC7A",
"F  c #E1E461",
"G  c #E4EF65",
"H  c #E3EE6E",
"J  c #E7F063",
"K  c #FBF267",
"L  c #FCF26C",
"P  c #F4F969",
"I  c #FFFA69",
"U  c #E4EC75",
"Y  c #E5EB7A",
"T  c #ECED7B",
"R  c #EEF374",
"E  c #E4F873",
"W  c #E8F27F",
"Q  c #E6F979",
"!  c #F1F775",
"~  c #FDF471",
"^  c #F4FA74",
"/  c #F3F379",
"(  c #F8F17F",
")  c #FFFB7D",
"_  c #A1A09E",
"`  c #A29FA2",
"'  c #A29BAD",
"]  c #A0A0A1",
"[  c #A7A0B0",
"{  c #ACA6B0",
"}  c #D4DD84",
"|  c #DEDE84",
" . c #E6EE81",
".. c #EEEF87",
"X. c #E1E189",
"o. c #E7EE8F",
"O. c #EAEF89",
"+. c #E4F082",
"@. c #ECF985",
"#. c #E5F18F",
"$. c #EBF189",
"%. c #EDF98B",
"&. c #FBFC84",
"*. c #F0F78F",
"=. c #FFF78E",
"-. c #FDFE8A",
";. c #EFF496",
":. c #EFF999",
">. c #F5FE92",
",. c #FCFE94",
"<. c #F1F698",
"1. c #FEF79F",
"2. c #F5FD9E",
"3. c #FEFE9C",
"4. c #EEEEA6",
"5. c #EAEFAC",
"6. c #F3EDA3",
"7. c #EEF5A3",
"8. c #EEF3AC",
"9. c #F2F7A4",
"0. c #F6FEA4",
"q. c #FEFEA5",
"w. c #F0F3AC",
"e. c #F4F8AB",
"r. c #FDFEAD",
"t. c #EFEFBD",
"y. c #EDF2B3",
"u. c #EEF1B8",
"i. c #F1F4B2",
"p. c #F6FCB4",
"a. c #FDFDB3",
"s. c #FEF1BA",
"d. c #F5FCBB",
"f. c #FEFEBC",
"g. c #EFECCB",
"h. c #F0ECC9",
"j. c #FFF7C2",
"k. c #FEFEC4",
"l. c #F7F4CE",
"z. c #FEF6CF",
"x. c #FFFECA",
"c. c #F4F6D1",
"v. c #F7F9D3",
"b. c #FFFED3",
"n. c #F9F5D8",
"m. c #F6FADF",
"M. c #FFFFD9",
"N. c #FFFDDC",
"B. c #FFFFDD",
"V. c #FDF4E3",
"C. c #F7FBE2",
"Z. c #FFFFE1",
"A. c #FFFEE3",
"S. c #FFFEE5",
"D. c #F3F7E8",
"F. c #FDF3EB",
"G. c #F5F9E8",
"H. c #FFFEEA",
"J. c #FFFBEE",
"K. c #FFFFED",
"L. c #F3EFFF",
"P. c #FAEFFD",
"I. c #F6F5F3",
"U. c #FDF5F3",
"Y. c #F7F9F4",
"T. c #FFFFF1",
"R. c #FEFDF3",
"E. c #FFFFF7",
"W. c #F3F5FB",
"Q. c #FDF5FE",
"!. c #FFF6FE",
"~. c #F5FAFB",
"^. c #FFFEF9",
"/. c #FFFBFF",
"(. c #FDFDFE",
"). c white",
/* pixels */
"X O O O O O O O O O O O O O O O O O O O O O O O O O O O O O   o O O O O O O O O O O O O O O O O O O O O O O O O O O O O O O O   ",
"O ).).).).).).).).).).).).).).).).).).).).).).).).).).).).)., , ).).).).).).).).).).).).a 8 e e 7 6 6 9 9 9 9 9 9 9 7 7 9 9 9 9 ",
"O ).).).).).).).).).).).).).).).).).).).).).).).).).).).).)., , ).).).).).).).).).).).).d 9 e e 7 6 6 9 9 9 9 9 9 9 7 7 9 9 9 9 ",
"O ).).).).).).).).).).).).).).).).).).).).).).).).).b.M.S.S., , x.x.x.x.b.x.0.:.7.i.l.r.v w 7 7 6 6 9 6 9 w 9 9 9 9 7 7 9 9 9 9 ",
"O ).).).).).).).).).).).).).).).).).).).).).).).).).).u.g.h., , 7.8.y.y.i.7.%.%.2.f.B.k.V i w 6 9 9 9 6 7 w 8 9 9 9 6 7 9 9 9 9 ",
"O ).).).).).).).).).).).).).).).).).).).).).).).).).).5.t.t., , 7.8.t.t.w.9.0.p.x.B.T.b.~ c w 6 9 9 9 6 7 w 8 9 9 9 6 6 9 9 9 9 ",
"O ).).).).).).).).).).).).).).).).).).).).).).).).).).x.M.b., , k.b.H.S.x.k.x.b.B.S.J.b.=.m y 8 9 9 6 7 7 w 9 9 9 9 9 9 9 9 9 9 ",
"O ).).).).).).).).).).).).).).).).).).).).).).).).).).Z.K.K., , Z.K././.K.S.S.Z.M.M.Z.b.q.K r 8 9 9 w 7 e w 9 9 9 9 9 9 9 9 9 9 ",
"O ).).).).).).).).).).).).).).).).).).).).).).).).).).).E.^., , T.^.).)./.J.V.l.p.d.b.M.f.( p 5 9 0 w 7 e 7 9 9 9 9 9 9 9 9 9 9 ",
"O ).).).).).).).).).).).).).).).).).).).).).).).).).).).^.^., , T.T.).).!.K.b.e.+.#.v.K.B.1.l q 0 9 7 7 e 7 9 9 9 9 9 9 9 9 9 9 ",
"O ).).).).).).).).).).).).).).).).).).).).).).).).).).).E.^., , E.E././.H.x.4.o.%.r.H.).T.f.C u 0 9 6 7 7 w 9 9 9 9 9 9 9 9 9 9 ",
"O ).).).).).).).).).).).).).).).).).).).).).).).).).).).T.T., , ).^.U.Z.f.,.O.;.f.B.).!.).b.) v w 9 6 6 7 w 9 9 9 9 9 9 9 9 9 9 ",
"$ ).).).).).).).).).).).).).).).).).).).).).).).).).).).E.E., , /./.H.x.Y ! 3.f.S.)./.)./.Z.q.Z r 6 6 6 6 9 9 9 9 9 9 9 9 9 9 9 ",
"# ).).).).).).).).).).).).).).).).).).).).).).).).).).).).)., , !./.M.r.F ^ r.M././.).).~.K.f.) x e 6 6 9 9 9 9 9 9 9 9 9 9 6 9 ",
"% ).).).).).).).).).).).).).).).).).).).).).).).).).).).).)., , /.J.a.,.&.3.k.T././.^.K.~.E.b.3.V s 6 6 9 9 9 9 9 9 9 9 6 6 7 6 ",
"% ).).).).).).).).).).).).).).).).).).).).).).).).).).^.^.^., , Z.a.&./ f.B.U.!.!./.^.T.).Y.B.r.I h 9 9 9 9 9 9 9 9 9 7 7 7 7 6 ",
"% ).).).).).).).).).).).).).).).).).).).).).).).).).).^.T.T., , f.>.! T M./.!.!././.Y.G.Z.v.z.f.=.N f i 7 9 9 9 9 9 w e t a a a ",
"% ).).).).).).).).).).).).).).).).).).).).).).).).).).).^.U., , 3.H $.k.V././.P.).).^.B.2...6.s.j.f.,.M b 4 q 9 8 9 5 g j B P 3 ",
"% ).).).).).).).).).).).).).).).).).).).).).).).).).).).).^., , *.@.r.M.U./././.).^.H.d.U R r.b.V.S.x.1.L k b c c b z V R >.2.n ",
"+ = ; ; ; * 2 , - - - 1 1 , : , : - * ; ; , , : : : : : : : , , : : : : : : : : : : : : : : : : : : : : : : : : : : : : : : : : ",
"% > < < & , , ; , : > , , ; , , > - - , , , , : : : : : : : , , : : : : : : : : : : : : : : : : : : : : : : : : : : : : : : : : ",
"& ).).).).).).).).).).).).).).).).).).).).).).).).).).^.T.S., , J.).T.T.^.).^.T.H.x.@.@.b.K.E.).).K.p.} x.b.B.B.Z.k.T ,.B.)./.` ",
"& ).).).).).).).).).).).).).).).).).).).).).).).).).).^.K.m., , ).).^.)./.).^.S.x.0.W 0.Z.~.).).~.B.2.D k.B.S.V.H.k.J &.Z./.!.' ",
"& ).).).).).).).).).).).).).).).).).).).).).).).).).).^.K.H., , ).).).)./././.Z.q.@.<.k.D.W.).).Y.b.,.Q k.S.T.U.^.b.G -.Z././.[ ",
"& ).).).).).).).).).).).).).).).).).).).).).).).).).).^.E.E., , ).).).).).W.).S.;. .f.Z.T.~.).).^.M.,.E d.K.^.P./.B.A -.S./.).{ ",
"& ).).).).).).).).).).).).).).).).).).).).).).).).).).).).~., , ).)./.L.I.^.!.K.i.a.M.T.T.^.^.I./.B.,.S j.K./.P.!.F.| 3.S.).).` ",
": ).).).).).).).).).).).).).).).).).).).).).).).).).).).).)., , ).)./.).E.G.^.U.Z.n.F.^.T.E.^.U./.S.3.Y f.H.E.!.!.F.X.q.S.).)._ ",
"& ).).).).).).).).).).).).).).).).).).).).).).).).).).).).)., , )./.^.T.K.K.^./.!././.).).).).!.!.T.a.$.f.b.B.B.K.z.Y 3.Z.).).] ",
"& ).).).).).).).).).).).).).).).).).).).).).).).).).).).).W., , /.).T.S.K.E.^.).!.).).).).).).!.!.).k.9.k.b.M.B.S.x.$.r.S.).).] ",
"& ).).).).).).).).).).).).).).).).).).).).).).).).).).).).)., , /.^.H.S.^.).W.).).).).).).).).!.!./.Z.l.Z.S.K.T.E.Z.i.x.K.).).] ",
"& ).).).).).).).).).).).).).).).).).).).).).).).).).).).).)., , E.K.C.T.).).).).).).).).).).)././.).T.H.T.U.).)./.T.c.B.T.^.)._ ",
"& ).).).).).).).).).).).).).).).).).).).).).).).).).).).).)., , ).).).).).).).).).).).).).).).).).).).).).).).).).).).).).).).+ ",
"& ).).).).).).).).).).).).).).).).).).).).).).).).).).).).)., , ).).).).).).).).).).).).).).).).).).).).).).).).).).).).).).).+ ",
"& ).).).).).).).).).).).).).).).).).).).).).).).).).).).).)., , ).).).).).).).).).).).).).).).).).).).).).).).).).).).).).).).+ ",
"& ).).).).).).).).).).).).).).).).).).).).).).).).).).).).)., , ).).).).).).).).).).).).).).).).).).).).).).).).).).).).).).).+ ",
"& ).).).).).).).).).).).).).).).).).).).).).).).).).).).).)., , ).).).).).).).).).).).).).).).).).).).).).).).).).).).).).).).+ ",
"& ).).).).).).).).).).).).).).).).).).).).).).).).).).).).)., , ).).).).).).).).).).).).).).).).).).).).).).).).).).).).).).).+ ",
"& ).).).).).).).).).).).).).).).).).).).).).).).).).).).).)., , ).).).).).).).).).).).).).).).).).).).).).).).).).).).).).).).+ ",
"& ).).).).).).).).).).).).).).).).).).).).).).).).).).).).)., , ).).).).).).).).).).).).).).).).).).).).).).).).).).).).).).).# ",
"& ).).).).).).).).).).).).).).).).).).).).).).).).).).).).)., , ).).).).).).).).).).).).).).).).).).).).).).).).).).).).).).).# ",
"& ).).).).).).).).).).).).).).).).).).).).).).).).).).).).)., , ).).).).).).).).).).).).).).).).).).).).).).).).).).).).).).).+ ",
"+ % % % % % % % % % % % % % % % % % % % % % % % % % % % % % , , % % % % % % % % % % % @ @ @ % % % % % % % % % % % % % % % % # . ",
"% > < < & , , ; > : > , , - , , > - - , , , , > , & , , , , , , = > < < > * , ; , ; - : : : - ; ; - - > < ; ; - ; - ; ; ; ; - . ",
"& ).).).).).).).).).).).).).).).).).).).).).).).).).).).).)., , ).).).).).).).).).).).).).).).).).).).).).).).).).).).).).).).+ ",
"& ).).).).).).).).).).).).).).).).).).).).).).).).).).).).)., , ).).).).).).).).).).).).).).).).).).).).).).).).).).).).).).).+ ",
"& ).).).).).).).).).).).).).).).).).).).).).).).).).).).).)., , ).).).).).).).).).).).).).).).).).).).).).).).).).).).).).).).+ ",
"& ).).).).).).).).).).).).).).).).).).).).).).).).).).).).)., , ).).).).).).).).).).).).).).).).).).).).).).).).).).).).).).).+ ",
"& ).).).).).).).).).).).).).).).).).).).).).).).).).).).).)., , ).).).).).).).).).).).).).).).).).).).).).).).).).).).).).).).+ ",
": ).).).).).).).).).).).).).).).).).).).).).).).).).).).).)., , ).).).).).).).).).).).).).).).).).).).).).).).).).).).).).).).+ ",
"& ).).).).).).).).).).).).).).).).).).).).).).).).).).).).)., , ).).).).).).).).).).).).).).).).).).).).).).).).).).).).).).).+ ",
"& ).).).).).).).).).).).).).).).).).).).).).).).).).).).).)., , ).).).).).).).).).).).).).).).).).).).).).).).).).).).).).).).+ ",
"& ).).).).).).).).).).).).).).).).).).).).).).).).).).).).)., , ).).).).).).).).).).).).).).).).).).).).).).).).).).).).).).).+ ",
"& ).).).).).).).).).).).).).).).).).).).).).).).).).).).).)., , ).).).).).).).).).).).).).).).).).).).).).).).).).).).).).).).+ ",
"& ).).).).).).).).).).).).).).).).).).).).).).).).).).).).)., , ).).).).).).).).).).).).).).).).).).).).).).).).).).).).).).).+ ",
"& ).).).).).).).).).).).).).).).).).).).).).).).).).).).).)., , ).).).).).).).).).).).).).).).).).).).).).).).).).).).).).).).+ ",
"& ).).).).).).).).).).).).).).).).).).).).).).).).).).).).)., , ).).).).).).).).).).).).).).).).).).).).).).).).).).).).).).).+ ",
"& ).).).).).).).).).).).).).).).).).).).).).).).).).).).).)., , ).).).).).).).).).).).).).).).).).).).).).).).).).).).).).).).+ ",
"& ).).).).).).).).).).).).).).).).).).).).).).).).).).).).)., , ).).).).).).).).).).).).).).).).).).).).).).).).).).).).).).).+ ",
"& ).).).).).).).).).).).).).).).).).).).).).).).).).).).).)., , ).).).).).).).).).).).).).).).).).).).).).).).).).).).).).).).+ ",
"& ).).).).).).).).).).).).).).).).).).).).).).).).).).).).)., , ).).).).).).).).).).).).).).).).).).).).).).).).).).).).).).).+ ",
"& ).).).).).).).).).).).).).).).).).).).).).).).).).).).).)., , ).).).).).).).).).).).).).).).).).).).).).).).).).).).).).).).# ",
"& ).).).).).).).).).).).).).).).).).).).).).).).).).).).).)., , ).).).).).).).).).).).).).).).).).).).).).).).).).).).).).).).# ",
"& ).).).).).).).).).).).).).).).).).).).).).).).).).).).).)., , ).).).).).).).).).).).).).).).).).).).).).).).).).).).).).).).+ ",
"+ % % % % % % % % % % % % % % % % % % % % % % % % % % % % % , , % % % % % % % % % % % @ @ @ @ % % % % % % % % % % % % % % % # . "
};
