/* XPM */
static char *result[] = {
/* columns rows colors chars-per-pixel */
"24 24 4 1 ",
"  c black",
". c white",
"X c #0C0C0C",
"o c gray9",
/* pixels */
"                        ",
"     ...............X   ",
"     ...............X   ",
"     ...............X   ",
"     ...oXXXXXXXX...X   ",
"     ...X        ...X   ",
"     ...X        ...X   ",
"                 ...X   ",
"                 ...X   ",
"                 ...X   ",
"              ...XXX    ",
"              ...       ",
"              ...       ",
"           ...X         ",
"           ...X         ",
"           ...X         ",
"           ...X         ",
"           ...X         ",
"           ...X         ",
"           ...X         ",
"           ...X         ",
"           ...X         ",
"           XXX          ",
"                        "
};
