/* XPM */
static char *_0905efaac9744eeb1d4317a3ca151e0Q4DRjkNovvSVR3Gv[] = {
/* columns rows colors chars-per-pixel */
"64 64 235 2 ",
"   c #040405",
".  c #0B0B0B",
"X  c #060608",
"o  c #17120F",
"O  c #141414",
"+  c #1B1B1B",
"@  c #1E1D21",
"#  c #1D2120",
"$  c #222223",
"%  c #2A2A2A",
"&  c #2C2B25",
"*  c #343334",
"=  c #3B3B3B",
"-  c #39312B",
";  c #433F37",
":  c #3E403A",
">  c #4E4331",
",  c #534E37",
"<  c #685529",
"1  c #766735",
"2  c #756B30",
"3  c #434444",
"4  c #4A4A4A",
"5  c #4A4748",
"6  c #5A5748",
"7  c #4F4F50",
"8  c #525352",
"9  c #5C5C5C",
"0  c #585955",
"q  c #635B47",
"w  c #625C58",
"e  c #726749",
"r  c #68695A",
"t  c #716E55",
"y  c #5E5E61",
"u  c #636363",
"i  c #6C6C6C",
"p  c #676965",
"a  c #756E65",
"s  c #797766",
"d  c #6F6E70",
"f  c #747474",
"g  c #7B7B7B",
"h  c #767A74",
"j  c #84774F",
"k  c #7F8079",
"l  c #BEAC1E",
"z  c #988B39",
"x  c #958B36",
"c  c #A89439",
"v  c #AF9828",
"b  c #AFA031",
"n  c #B5A837",
"m  c #BEA62F",
"M  c #C9B737",
"N  c #CFB72F",
"B  c #F8DA1F",
"V  c #F8DA0D",
"C  c #D2C23A",
"Z  c #F6DB22",
"A  c #F9DC24",
"S  c #F2DD2C",
"D  c #F3DE34",
"F  c #F6DC39",
"G  c #F9DD3A",
"H  c #E1CD37",
"J  c #F6E126",
"K  c #F7E43E",
"L  c #EDE03E",
"P  c #8C8257",
"I  c #9C9250",
"U  c #A59957",
"Y  c #AA9840",
"T  c #B9AB47",
"R  c #B7AB57",
"E  c #BDB24C",
"W  c #898678",
"Q  c #9B9875",
"!  c #8C886E",
"~  c #A79A77",
"^  c #9DA16B",
"/  c #B7B662",
"(  c #C2A946",
")  c #CAB84B",
"_  c #C6B857",
"`  c #CDBD70",
"'  c #CEC348",
"]  c #CBC153",
"[  c #D6C954",
"{  c #D9C756",
"}  c #D8CA4D",
"|  c #ECD947",
" . c #F9DE43",
".. c #F2DE53",
"X. c #F8DF56",
"o. c #EDDF51",
"O. c #F6E14A",
"+. c #FAE44A",
"@. c #F6E45B",
"#. c #F9E35B",
"$. c #F5E556",
"%. c #EFE549",
"&. c #D7CB68",
"*. c #DCD267",
"=. c #D5CA7A",
"-. c #CAC067",
";. c #E6D866",
":. c #F6DF6C",
">. c #F6E361",
",. c #FAE565",
"<. c #F3E66C",
"1. c #F8E669",
"2. c #EEE376",
"3. c #F4E474",
"4. c #F1E67C",
"5. c #FAEC7A",
"6. c #F5E97A",
"7. c #F3ED6F",
"8. c #848483",
"9. c #8B8B8B",
"0. c #8C8987",
"q. c #918F8F",
"w. c #9C9582",
"e. c #969788",
"r. c #8F8F90",
"t. c #959594",
"y. c #9D9D9C",
"u. c #949398",
"i. c #938F90",
"p. c #9FA195",
"a. c #AAA894",
"s. c #BCBA98",
"d. c #B1AC8E",
"f. c #9F9FA0",
"g. c #A4A4A4",
"h. c #ACACAC",
"j. c #A8A9A7",
"k. c #B4B3AD",
"l. c #B6B5A3",
"z. c #B5B4B4",
"x. c #B8B7B7",
"c. c #BBBCBB",
"v. c #B8BAB7",
"b. c #AFAEAF",
"n. c #C1BCA6",
"m. c #C4BDB7",
"M. c #BDC1BD",
"N. c #BDC1AD",
"B. c #C8C798",
"V. c #EADF9A",
"C. c #ECE789",
"Z. c #F3E782",
"A. c #F3EA84",
"S. c #F2E68A",
"D. c #F5EB8C",
"F. c #F9ED86",
"G. c #ECE59B",
"H. c #F4EB93",
"J. c #F4ED9C",
"K. c #FAEE9B",
"L. c #F6E698",
"P. c #F6F194",
"I. c #F8F29B",
"U. c #C7C6A8",
"Y. c #D3CBA9",
"T. c #C7C6B9",
"R. c #DAD6BA",
"E. c #D0C7BC",
"W. c #E3DBB7",
"Q. c #EADCA0",
"!. c #F7EDA6",
"~. c #F6F1A5",
"^. c #FAF3A3",
"/. c #F4F1AD",
"(. c #FAF3AB",
"). c #E8E7B9",
"_. c #F3F3B3",
"`. c #F9F4B5",
"'. c #FBF5BA",
"]. c #F8F6B8",
"[. c #EEE8AD",
"{. c #C1BFC1",
"}. c #BFC0C0",
"|. c #C4C3C3",
" X c #CBCBC7",
".X c #CCCCCC",
"XX c #C9C7C8",
"oX c #D9D6C8",
"OX c #CFCFD0",
"+X c #CFD2D1",
"@X c #D4D5D4",
"#X c #D6D8D2",
"$X c #D9DBD4",
"%X c #DBDBDA",
"&X c #DFD7D8",
"*X c #D2CFCD",
"=X c #E0DAD3",
"-X c #E8E5C6",
";X c #F6F4C3",
":X c #FAF5C4",
">X c #F7F5CB",
",X c #FBF6CC",
"<X c #FBF9CB",
"1X c #FBF9C5",
"2X c #E2E2DA",
"3X c #F1EFD9",
"4X c #FBF9D4",
"5X c #FCFADB",
"6X c #F8F7D9",
"7X c #DCDCE0",
"8X c #E3E3E3",
"9X c #EBEAE4",
"0X c #ECECEB",
"qX c #E5E8E3",
"wX c #F2EEE8",
"eX c #FCF6E6",
"rX c #FCFBE4",
"tX c #F4F3EE",
"yX c #FBF6EB",
"uX c #FBFBEC",
"iX c #F7F9E7",
"pX c #EFEFF0",
"aX c #F4F4F4",
"sX c #F6F9F4",
"dX c #FCFCF4",
"fX c #F7F7F8",
"gX c #F6FAF9",
"hX c #FFFFFD",
"jX c #FEFEFE",
"kX c white",
"lX c #FFFFFE",
"zX c #FDFDFD",
"xX c #FFFFFE",
"cX c #F8F6F6",
"vX c #EFF5E3",
/* pixels */
"kXkXkXkXkXkXkXkXkXkXkXkXkXkXkXkXkXkXkXzXzXcXiX4X<X(.Z.2.3.H.<XuXuXuXsXkXzXkXkXzXzXdXsXdXkXkXkXkXkXkXkXkXkXkXkXkXkXkXkXkXkXkXkXkX",
"kXkXkXkXkXkXkXkXkXkXkXkXkXkXkXkXkXkXzXzXgX$X_ C [ _ j w 6 I C v c e u g u u 9.z.|.tXuXdXkXkXkXkXkXkXkXkXkXkXkXkXkXkXkXkXkXkXkXkX",
"kXkXkXkXkXkXkXkXkXkXkXkXkXkXkXkXkXkXzXsX|.> { !.uXzX+XM.v.tXoXR.U.k.tX@Xg.j.9.9.0.t / E.kXkXkXkXkXkXkXkXkXkXkXkXkXkXkXkXkXkXkXkX",
"kXkXkXkXkXkXkXkXkXkXkXkXkXkXkXkXkXkXdX=X< &.~.yX@X|.c.|.j..Xc.@X%X.X0Xc.z.|.0X0X$Xl.C.T ~ 0XdXdXkXkXkXkXkXkXkXkXkXkXkXkXkXkXkXkX",
"kXkXkXkXkXkXkXkXkXkXkXkXkXkXkXkXkXkXsXR ;.,X%X.XM.j.z.x.cX0X8X.X0XzXzXzX@X.X.X@X%X XyX'.;.U rXdXdXkXkXkXkXkXkXkXkXkXkXkXkXkXkXkX",
"kXkXkXkXkXkXkXkXkXkXkXkXkXkXkXkXzXdXV.&.6XgX0X.Xj..XzXcX0XzXzXcX}.zXkXkX%X@XzXkXdX@X7XzXyXE H.dXdXkXkXkXkXkXkXkXkXkXkXkXkXkXkXkX",
"kXkXkXkXkXkXkXkXkXkXkXkXkXkXkXkXzX3X] -XgXdXdXsXqXy.= % $ 5 u h.0XgXzXzXj.zX8X@X@X8X0XsXsX! ] 4XzXkXkXkXkXkXkXkXkXkXkXkXkXkXkXkX",
"kXkXkXkXkXkXkXkXkXkXkXkXkXkXkXkX.X> _ wXsXsXT.v.t.+     X 0..Xu u cXzX8X.X8 O   . % %X8XzX$XP w.zXkXkXkXkXkXkXkXkXkXkXkXkXkXkXkX",
"kXkXkXkXkXkXkXkXkXkXkXkXkXkXzX.X3 g -Xe.k 8.j.v.c.y.|.h h.t.9 = 9 sXzX9.# 3 f 9.{..XaX0XpXx.z.w z.kXkXkXkXkXkXkXkXkXkXkXkXkXkXkX",
"kXkXkXkXkXkXkXkXkXkXkXkXkXzXcX8 T.0X9 t.|.y.i 3 8.t.9 f cXzXcX@XaXsXsXeX8 aXzXgX8XpX8.8 8 y.8X8.y.kXkXkXkXkXkXkXkXkXkXkXkXkXkXkX",
"kXkXkXkXkXkXkXkXkXkXkXkXkXkX0Xu zXk.8.sXz.3 |.aX|.x..XzXzXzXcX0XwXJ.H.4.s i 0XzXi = 9 z.aX.X|.g g.kXkXkXkXkXkXkXkXkXkXkXkXkXkXkX",
"kXkXkXkXkXkXkXkXkXkXkXkXkXkX0Xu 0Xh.9.9 O t.h 8 g.cXzX0XaX.X5 q _ C._.<.6.a.$ XXdXzXzX4 @X%X.Xt.y.kXkXkXkXkXkXkXkXkXkXkXkXkXkXkX",
"kXkXkXkXkXkXkXkXkXkXkXkXkXzX0X* h.@X4 zXh.u cX8Xu # 9 j.0XzXa ` 1 0 m.~...s 8 g..X%X@X$ p |..X$ %XkXkXkXkXkXkXkXkXkXkXkXkXkXkXkX",
"kXkXkXkXkXkXkXkXkXkXkXkXkXkXkXj.u x.@XzX8X* * r.g y.2XQ 0 3 0 w.qXfXsXi ; i.zXzXaX9.+ O 3 kXf.g dXkXkXkXkXkXkXkXkXkXkXkXkXkXkXkX",
"kXkXkXkXkXkXkXkXkXkXkXkXkXkXkXzXy.* %XsXgXOX3 t.* o W &.Z.e q.t.9 3 0 u 9 y u p $ t.3 g + zX7 cXkXdXkXkXkXkXkXkXkXkXkXkXkXkXkXkX",
"kXkXkXkXkXkXkXkXkXkXkXkXkXkXkXkXzXy.f >XrXrXu.g t.p 4 o < x l.cXzX@Xp 0X|.7 0XaX3 |.* = O aX$ zXzXdXkXkXkXkXkXkXkXkXkXkXkXkXkXkX",
"kXkXkXkXkXkXkXkXkXkXkXkXkXkXkXkXkXzX6 &.D.C.tXg + @XzX@Xg & O + $ % O @ $ O % + X .     * aX@ zXdXkXkXkXkXkXkXkXkXkXkXkXkXkXkXkX",
"kXkXkXkXkXkXkXkXkXkXkXkXkXkXkXkXkXkXXX2 3.7.!.sXg.8 .XsXj.8.8Xk.h @ + X             X . p sX- zXgXkXkXkXkXkXkXkXkXkXkXkXkXkXkXkX",
"kXkXkXkXkXkXkXkXkXkXkXkXkXkXkXkXkXkXdXp.c 6.>.'.zX@X0 i = 2XkXzXcXy 8X%Xh f OX* g.4 4 % h.iXR 5XzXkXkXkXkXkXkXkXkXkXkXkXkXkXkXkX",
"kXkXkXkXkXkXkXkXkXkXkXkXkXkXkXkXkXkXzXsXd.c | ;.R.h.8Xx.u 9 8..X|.= cXfX8 aXf.u i 4 4 i tXuX[ 1XzXkXkXkXkXkXkXkXkXkXkXkXkXkXkXkX",
"kXkXkXkXkXkXkXkXkXkXkXkXkXkXkXkXkXkXdXsXcXm.' m ) k..X|. X%Xx.g h f f 9 3 i p g g |.%XtXuXuX} >XzXkXkXkXkXkXkXkXkXkXkXkXkXkXkXkX",
"kXkXkXkXkXkXkXkXkXkXkXkXkXkXkXkXkXkXzXdXdXsX'.} N &.U.T.z.h.z.8X0X0X}.|.c.|.|.0XzX0X|.0XaX:Xm n.zXkXkXkXkXkXkXkXkXkXkXkXkXkXkXkX",
"kXkXkXkXkXkXkXkXkXkXkXkXkXkXkXkXkXkXkXkXkXkXdXS.J.L.) T n.OX8X|.j.%XaXaXaX@Xx.z.8X8XcX+XU.$.C s.dXkXkXkXkXkXkXkXkXkXkXkXkXkXkXkX",
"kXkXkXkXkXkXkXkXkXkXkXkXkXkXkXkXkXkXkXkXkXzXdXrXrXdX5X_.w.= y.aXzXzX%X.XcXcX.Xz.h.j.|.2XA.$.H T.dXkXkXkXkXkXkXkXkXkXkXkXkXkXkXkX",
"kXkXkXkXkXkXkXkXkXkXkXkXkXkXkXkXkXkXkXkXkXdXdXdXzXgXzXsX.X: 5 * 4 d j.0XgXkXkXzXzXzXsXJ...L ;.uXkXkXkXkXkXkXkXkXkXkXkXkXkXkXkXkX",
"kXkXkXkXkXkXkXkXkXkXkXkXkXkXkXkXkXkXkXkXkXkXkXkXzXdXrXY.5 N.U #Xy.% h 0 3 f j.j.k.j.a.' l | 4XzXkXkXkXkXkXkXkXkXkXkXkXkXkXkXkXkX",
"kXkXkXkXkXkXkXkXkXkXkXkXkXkXkXkXkXkXkXkXkXkXkXkXdX:X;.c oXB.[ uXsXB., oX>X2Xj.g.g.j.a.;.^.,XkXkXdXkXkXkXkXkXkXkXkXkXkXkXkXkXkXkX",
"kXkXkXkXkXkXkXkXkXkXkXkXkXkXkXkXkXkXkXkXkXkXkXdX`.{ 1 oXsXU C.uXzX~.M 1 ;.rXsXdXdXdXrX3.5XsXkXdXkXkXkXkXkXkXkXkXkXkXkXkXkXkXkXkX",
"kXkXkXkXkXkXkXkXkXkXkXkXkXkXkXkXkXkXkXkXkXkXkX5X{ < +XdX#Xe ;XdXzXsX~.T v D.rXzXdXdXrX!.rXdXkXkXkXdXkXkXkXkXkXkXkXkXkXkXkXkXkXkX",
"kXkXkXkXkXkXkXkXkXkXkXkXkXkXkXkXkXkXkXkXkXdXzX[.b *XzXzX! d.sXzXdXdXuXJ.N N P.dXkXkXrX;XdXdXkXkXkXdXkXkXkXkXkXkXkXkXkXkXkXkXkXkX",
"kXkXkXkXkXkXkXkXkXkXkXkXkXkXkXkXkXkXkXkXkXgX%XY | 5XdXgXz G.dXdXdXdXdXsXJ.R M !.uXkX<XS.dXdXkXkXkXkXkXkXkXkXkXkXkXkXkXkXkXkXkXkX",
"kXkXkXkXkXkXkXkXkXkXkXkXkXkXkXkXkXkXkXkXkXsXr ( D.dXdX9Xn '.kXdXkXkXkXgXdXsXQ R yXdX4XJ.dXdXkXkXkXkXkXkXkXkXkXkXkXkXkXkXkXkXkXkX",
"kXkXkXkXkXkXkXkXkXkXkXkXkXkXkXkXkXkXkXkXkXXX2 2.rXzXzXE.) 5XkXdXkXkXkXdXkXdX9X8 2XdXzXyXdXkXkXkXkXkXkXkXkXkXkXkXkXkXkXkXkXkXkXkX",
"kXkXkXkXkXkXkXkXkXkXkXkXkXkXkXkXkXkXkXzXzXa E `.kXdXzXd.[ uXkXkXdXkXkXkXkXdXdX^ q.zXzXsX4XdXkXkXkXkXkXkXkXkXkXkXkXkXkXkXkXkXkXkX",
"kXkXkXkXkXkXkXkXkXkXkXkXkXkXkXkXkXkXkXkX8X1 Z.uXdXdXkXQ ;.uXkXkXdXkXkXkXkXdXiX;.a.zXzXrXC.uXkXkXkXkXkXkXkXkXkXkXkXkXkXkXkXkXkXkX",
"kXkXkXkXkXkXkXkXkXkXkXkXkXkXkXkXkXkXdXkXgX-X>XzXkXkXdXq W.dXkXkXkXkXkXkXkXdXuX1.5XkXkXdX:XzXkXkXkXkXkXkXkXkXkXkXkXkXkXkXkXkXkXkX",
"kXkXkXkXkXkXkXkXkXkXkXkXkXkXkXkXkXkXkXdXdXzXdXdXkXkXdX6 [.dXkXkXkXkXkXkXkXkXdX3.<XkXkXkXkXkXkXkXkXkXkXkXkXkXkXkXkXkXkXkXkXkXkXkX",
"kXkXkXkXkXkXkXkXkXkXkXkXkXkXkXkXkXkXkXrX!.rXkXkXkXkXdXj H.dXkXkXkXkXkXkXkXkXdXJ.<XkXkXkXkXkXkXkXkXkXkXkXkXkXkXkXkXkXkXkXkXkXkXkX",
"kXkXkXkXkXkXkXkXkXkXkXkXkXkXkXkXkXkXkXdXZ.1XkXkXdXdXdXz L.dXkXkXkXkXkXkXkXkXdXrXdXkXkXkXkXkXkXkXkXkXkXkXkXkXkXkXkXkXkXkXkXkXkXkX",
"kXkXkXkXkXkXkXkXkXkXkXkXkXkXkXkXkXkXkXdX~.4XkXkXdXdXzXn H.dXkXkXkXkXkXkXkXkX5X/.dXkXkXkXkXkXkXkXkXkXkXkXkXkXkXkXkXkXkXkXkXkXkXkX",
"kXkXkXkXkXkXkXkXkXkXkXkXkXkXkXkXkXkXkXdXzXdXdXdXdXdXdX) [.kXkXkXkXkXkXkXkXkX4X4.dXkXkXkXkXkXkXkXkXkXkXkXkXkXkXkXkXkXkXkXkXkXkXkX",
"kXkXkXkXkXkXkXkXkXkXkXkXkXkXkXkXkXkXdXdXdXkXkXdXkXdXdX*.s.dXkXkXkXkXkXkXkXdXdXiXdXdXdXkXkXkXkXkXkXkXkXkXkXkXkXkXkXkXkXkXkXkXkXkX",
"kXkXkXkXkXkXkXkXkXkXkXkXkXkXkXkXkXkXdXuX/.uXkXdXkXdXuX*.W kXkXkXkXkXkXkXkXkXkXdXrXrXdXkXkXkXkXkXkXkXkXkXkXkXkXkXkXkXkXkXkXkXkXkX",
"kXkXkXkXkXkXkXkXkXkXkXkXkXkXkXkXkXkXzXrX4.5XkXdXkXdXdXY.h kXkXkXkXkXkXkXkXkXkXdX/._.dXkXkXkXkXkXkXkXkXkXkXkXkXkXkXkXkXkXkXkXkXkX",
"kXkXkXkXkXkXkXkXkXkXkXkXkXkXkXkXkXkXkXdX4XdXkXkXdXkXdX Xh zXkXkXkXkXkXkXkXkXkXdX_./.dXkXkXkXkXkXkXkXkXkXkXkXkXkXkXkXkXkXkXkXkXkX",
"kXkXkXkXkXkXkXkXkXkXkXkXkXkXkXkXkXkXdXdXzXkXkXkXkXkXkX.X4 sXkXkXkXkXkXkXkXkXkXkXuXuXkXkXkXkXkXkXkXkXkXkXkXkXkXkXkXkXkXkXkXkXkXkX",
"kXkXkXkXkXkXkXkXkXkXkXkXkXkXkXkXkXkXkXkXzXkXkXkXzXzX|.7 5 p @XgXkXkXkXkXkXkXkXkXkXdXkXkXkXkXkXkXkXkXkXkXkXkXkXkXkXkXkXkXkXkXkXkX",
"kXkXkXkXkXkXkXkXkXkXkXkXkXkXkXkXkXkXkXkXkXkXkXkXsXz.8 @XcXx.8 x.kXkXkXkXkXkXkXkXkXkXkXkXkXkXkXkXkXkXkXkXkXkXkXkXkXkXkXkXkXkXkXkX",
"kXkXkXkXkXkXkXkXkXkXkXkXkXkXkXkXkXkXkXkXkXkXkXkXXX, 2XzXzXzX@X8 h.uXdXkXkXkXkXkXkXkXkXkXkXkXkXkXkXkXkXkXkXkXkXkXkXkXkXkXkXkXkXkX",
"kXkXkXkXkXkXkXkXkXkXkXkXkXkXkXkXkXkXkXkXkXdXdXsXP *.5XkXkXkXzX$X6 =.rXdXdXkXkXkXkXkXkXkXkXkXkXkXkXkXkXkXkXkXkXkXkXkXkXkXkXkXkXkX",
"kXkXkXkXkXkXkXkXkXkXkXkXkXkXkXkXkXkXkXkXkXdXzXR.M '.dXkXkXdXdXdX&Xx S.dXkXdXkXkXkXkXkXkXkXkXkXkXkXkXkXkXkXkXkXkXkXkXkXkXkXkXkXkX",
"kXkXkXkXkXkXkXkXkXkXkXkXkXkXkXkXkXkXkXkXkXdX6X] G.uXzXkXkXdXkXdXzXW.) 2XkXzXkXkXkXkXkXkXkXkXkXkXkXkXkXkXkXkXkXkXkXkXkXkXkXkXkXkX",
"kXkXkXkXkXkXkXkXkXkXkXkXkXkXkXkXkXkXkXkXkXuX*.=.uXdXkXkXkXkXkXkXzXdXT.6 vXsXdXkXkXkXkXkXkXkXkXkXkXkXkXkXkXkXkXkXkXkXkXkXkXkXkXkX",
"kXkXkXkXkXkXkXkXkXkXkXkXkXkXkXkXkXkXkXkXkX-X( 3XdXdXdXkXkXkXkXkXdXkXsX` ~ gXdXkXkXkXkXkXkXkXkXkXkXkXkXkXkXkXkXkXkXkXkXkXkXkXkXkX",
"kXkXkXkXkXkXkXkXkXkXkXkXkXkXkXkXkXkXkXkXkXa.w.zXdXdXkXkXkXkXkXkXzXuX5XF.x @XdXdXkXdXkXkXkXkXkXkXkXkXkXkXkXkXkXkXkXkXkXkXkXkXkXkX",
"kXkXkXkXkXkXkXkXkXkXkXkXkXkXkXkXdXkXzXsX0X8 #XuXdXdXdXdXdXuXeX<XK.<.3.3.-.r :XA.(.rXdXdXdXkXkXkXkXkXkXkXkXkXkXkXkXkXkXkXkXkXkXkX",
"kXkXkXkXkXkXkXkXkXkXkXkXkXkXkXkXkXdXdXdXk.s _.H.A.A.Z.A.3.O.G $.6.^.(.`.S.> $X`.Z.<./.dXdXkXkXkXkXkXkXkXkXkXkXkXkXkXkXkXkXkXkXkX",
"kXkXkXkXkXkXkXkXkXkXkXkXkXkXkXkXdX'.A.6Xp s.3.!.(.5.(.`.1.K J I.K.S B ,.4Xt m.`.Z.`.2.5XdXkXkXkXkXkXkXkXkXkXkXkXkXkXkXkXkXkXkXkX",
"kXkXkXkXkXkXkXkXkXkXkXkXkXdXkXdX'.G O.).0 /...^.,.S (.K.>.#.A +.Z A B ,.'.G.'.| %.,X<.5XkXkXkXkXkXkXkXkXkXkXkXkXkXkXkXkXkXkXkXkX",
"kXkXkXkXkXkXkXkXkXkXkXkXkXdXdX4X$.A #.T.a 1.J S V A $.1.#.J Z #.>.I.K K F #.<.F.1XP.S.dXdXkXkXkXkXkXkXkXkXkXkXkXkXkXkXkXkXkXkXkX",
"kXkXkXkXkXkXkXkXkXkXkXkXkXkXdX!.F.O.K.Q.=.G F.6.A V  .F.S J 1.4X4X,Xo.A. .D D.4XD.2.5XzXdXkXkXkXkXkXkXkXkXkXkXkXkXkXkXkXkXkXkXkX",
"kXkXkXkXkXkXkXkXkXkXkXkXkXdXdXP.5.D G Z  .A.uX4XK G '.^.+.D >.2.4.6.A.(.O.7.I.3.J.rXzXdXdXkXkXkXkXkXkXkXkXkXkXkXkXkXkXkXkXkXkXkX",
"kXkXkXkXkXkXkXkXkXkXkXkXkXdXkX,X$.+.P.J.:XrX4X1X1.,.3.3.K.'.,X<X<X'.K.4.6.3.L.,XdXdXkXdXdXdXkXkXkXkXkXkXkXkXkXkXkXkXkXkXkXkXkXkX",
"kXkXkXkXkXkXkXkXkXkXkXkXkXkXkXkX,X1.X.#.#.$.@.:.6.J.<XuXdXkXkXkXkXkXkXdXdXdXdXkXkXkXkXkXkXkXkXkXkXkXkXkXkXkXkXkXkXkXkXkXkXkXkXkX"
};
